<svg width="853" height="518" viewBox="0 0 853 518" fill="none" xmlns="http://www.w3.org/2000/svg">
<g filter="url(#filter0_d_6_88)">
<path d="M641.172 400C572.672 400 526.672 384.583 503.172 353.75C479.672 322.75 467.922 280.917 467.922 228.25C467.922 175.417 479.672 133.75 503.172 103.25C526.672 72.5833 572.589 57.25 640.922 57.25C710.255 57.25 755.422 72 776.422 101.5C797.589 130.833 808.172 163.417 808.172 199.25H692.422C692.422 170.25 687.755 152.167 678.422 145C669.255 137.833 656.505 134.25 640.172 134.25C623.672 134.25 610.089 138.583 599.422 147.25C588.755 155.75 583.422 182.75 583.422 228.25C583.422 274.083 588.672 301.333 599.172 310C609.839 318.667 623.505 323 640.172 323C656.339 323 669.089 319.333 678.422 312C687.755 304.667 692.422 286.75 692.422 258.25H808.172C808.172 292.917 797.589 325.25 776.422 355.25C755.255 385.083 710.172 400 641.172 400Z" fill="#386FAE"/>
</g>
<g filter="url(#filter1_d_6_88)">
<path d="M419.77 399.75C351.603 399.75 306.186 388.333 283.52 365.5C261.02 342.5 249.77 313.667 249.77 279H363.77C363.77 299.667 369.186 312.25 380.02 316.75C391.02 321.083 403.936 323.25 418.77 323.25C433.77 323.25 446.603 321.75 457.27 318.75C468.103 315.75 473.52 309.583 473.52 300.25C473.52 289.583 465.27 282.583 448.77 279.25C432.436 275.917 410.186 272.083 382.02 267.75C330.853 258.083 296.02 246.833 277.52 234C259.186 221.167 250.02 199.917 250.02 170.25C250.02 139.417 261.436 112.917 284.27 90.75C307.103 68.4167 351.52 57.25 417.52 57.25C483.186 57.25 527.52 69.1667 550.52 93C573.686 116.667 585.27 144.75 585.27 177.25H471.02C471.02 156.917 465.353 144.583 454.02 140.25C442.686 135.917 430.103 133.75 416.27 133.75C400.436 133.75 387.103 135.5 376.27 139C365.603 142.5 360.27 148.5 360.27 157C360.27 169.167 368.77 176.833 385.77 180C402.77 183 425.103 186.833 452.77 191.5C505.936 201.167 541.353 211.833 559.02 223.5C576.853 235 585.77 255.167 585.77 284C585.77 315.833 574.686 343.083 552.52 365.75C530.353 388.417 486.103 399.75 419.77 399.75Z" fill="#468BDB"/>
</g>
<g filter="url(#filter2_d_6_88)">
<path d="M199.5 400.75C145.5 400.75 104.75 392 77.25 374.5C49.75 356.833 36 329.75 36 293.25V246.75H150V280.25C150 294.583 153.25 305.583 159.75 313.25C166.417 320.917 179.583 324.75 199.25 324.75C218.75 324.75 232 321.333 239 314.5C246 307.5 249.5 297.083 249.5 283.25V60.5H363.25V299.75C363.25 332.583 349.583 357.667 322.25 375C295.083 392.167 254.167 400.75 199.5 400.75Z" fill="#51A2FF"/>
</g>
<mask id="path-4-inside-1_6_88" fill="white">
<path d="M420 399.75C351.833 399.75 306.417 388.333 283.75 365.5C261.25 342.5 250 313.667 250 279H364C364 299.667 369.417 312.25 380.25 316.75C391.25 321.083 404.167 323.25 419 323.25C434 323.25 446.833 321.75 457.5 318.75C468.333 315.75 473.75 309.583 473.75 300.25C473.75 289.583 465.5 282.583 449 279.25C432.667 275.917 410.417 272.083 382.25 267.75C331.083 258.083 296.25 246.833 277.75 234C259.417 221.167 250.25 199.917 250.25 170.25C250.25 139.417 261.667 112.917 284.5 90.75C307.333 68.4167 351.75 57.25 417.75 57.25C483.417 57.25 527.75 69.1667 550.75 93C573.917 116.667 585.5 144.75 585.5 177.25H471.25C471.25 156.917 465.583 144.583 454.25 140.25C442.917 135.917 430.333 133.75 416.5 133.75C400.667 133.75 387.333 135.5 376.5 139C365.833 142.5 360.5 148.5 360.5 157C360.5 169.167 369 176.833 386 180C403 183 425.333 186.833 453 191.5C506.167 201.167 541.583 211.833 559.25 223.5C577.083 235 586 255.167 586 284C586 315.833 574.917 343.083 552.75 365.75C530.583 388.417 486.333 399.75 420 399.75Z"/>
</mask>
<path d="M283.75 365.5L281.605 367.598L281.613 367.606L281.621 367.614L283.75 365.5ZM250 279V276H247V279H250ZM364 279H367V276H364V279ZM380.25 316.75L379.099 319.52L379.125 319.531L379.15 319.541L380.25 316.75ZM457.5 318.75L456.699 315.859L456.688 315.862L457.5 318.75ZM449 279.25L448.4 282.189L448.406 282.191L449 279.25ZM382.25 267.75L381.693 270.698L381.743 270.707L381.794 270.715L382.25 267.75ZM277.75 234L276.03 236.458L276.04 236.465L277.75 234ZM284.5 90.75L286.59 92.9025L286.598 92.8947L284.5 90.75ZM550.75 93L548.591 95.0833L548.599 95.0909L548.606 95.0985L550.75 93ZM585.5 177.25V180.25H588.5V177.25H585.5ZM471.25 177.25H468.25V180.25H471.25V177.25ZM376.5 139L375.578 136.145L375.565 136.15L376.5 139ZM386 180L385.451 182.949L385.465 182.952L385.479 182.954L386 180ZM453 191.5L453.537 188.548L453.518 188.545L453.499 188.542L453 191.5ZM559.25 223.5L557.597 226.003L557.61 226.012L557.624 226.021L559.25 223.5ZM552.75 365.75L550.605 363.652L552.75 365.75ZM420 399.75V396.75C386.062 396.75 357.932 393.906 335.544 388.278C313.138 382.646 296.691 374.278 285.879 363.386L283.75 365.5L281.621 367.614C293.476 379.556 311.07 388.313 334.081 394.097C357.11 399.886 385.771 402.75 420 402.75V399.75ZM283.75 365.5L285.895 363.402C263.988 341.009 253 312.949 253 279H250H247C247 314.384 258.512 343.991 281.605 367.598L283.75 365.5ZM250 279V282H364V279V276H250V279ZM364 279H361C361 299.889 366.452 314.267 379.099 319.52L380.25 316.75L381.401 313.979C372.381 310.233 367 299.444 367 279H364ZM380.25 316.75L379.15 319.541C390.577 324.043 403.883 326.25 419 326.25V323.25V320.25C404.451 320.25 391.923 318.124 381.35 313.959L380.25 316.75ZM419 323.25V326.25C434.185 326.25 447.307 324.733 458.312 321.638L457.5 318.75L456.688 315.862C446.36 318.767 433.815 320.25 419 320.25V323.25ZM457.5 318.75L458.301 321.641C464.079 320.041 468.73 317.511 471.941 313.855C475.197 310.149 476.75 305.539 476.75 300.25H473.75H470.75C470.75 304.295 469.595 307.434 467.434 309.895C465.229 312.405 461.755 314.459 456.699 315.859L457.5 318.75ZM473.75 300.25H476.75C476.75 294.021 474.289 288.773 469.503 284.712C464.835 280.751 458.09 278.026 449.594 276.309L449 279.25L448.406 282.191C456.41 283.808 462.04 286.249 465.622 289.288C469.086 292.227 470.75 295.812 470.75 300.25H473.75ZM449 279.25L449.6 276.311C433.197 272.963 410.892 269.121 382.706 264.785L382.25 267.75L381.794 270.715C409.941 275.045 432.136 278.87 448.4 282.189L449 279.25ZM382.25 267.75L382.807 264.802C331.649 255.137 297.387 243.971 279.46 231.535L277.75 234L276.04 236.465C295.113 249.696 330.517 261.029 381.693 270.698L382.25 267.75ZM277.75 234L279.47 231.542C262.189 219.445 253.25 199.289 253.25 170.25H250.25H247.25C247.25 200.545 256.644 222.888 276.03 236.458L277.75 234ZM250.25 170.25H253.25C253.25 140.257 264.317 114.525 286.59 92.9025L284.5 90.75L282.41 88.5975C259.016 111.309 247.25 138.577 247.25 170.25H250.25ZM284.5 90.75L286.598 92.8947C297.505 82.2264 313.765 74.0413 335.669 68.5345C357.559 63.0312 384.898 60.25 417.75 60.25V57.25V54.25C384.602 54.25 356.733 57.0521 334.206 62.7155C311.693 68.3754 294.329 76.9402 282.402 88.6053L284.5 90.75ZM417.75 57.25V60.25C483.303 60.25 526.506 72.198 548.591 95.0833L550.75 93L552.909 90.9167C528.994 66.1353 483.53 54.25 417.75 54.25V57.25ZM550.75 93L548.606 95.0985C571.236 118.216 582.5 145.551 582.5 177.25H585.5H588.5C588.5 143.949 576.598 115.117 552.894 90.9014L550.75 93ZM585.5 177.25V174.25H471.25V177.25V180.25H585.5V177.25ZM471.25 177.25H474.25C474.25 156.609 468.496 142.485 455.321 137.448L454.25 140.25L453.179 143.052C462.671 146.682 468.25 157.224 468.25 177.25H471.25ZM454.25 140.25L455.321 137.448C443.602 132.967 430.649 130.75 416.5 130.75V133.75V136.75C430.018 136.75 442.232 138.867 453.179 143.052L454.25 140.25ZM416.5 133.75V130.75C400.466 130.75 386.8 132.52 375.578 136.145L376.5 139L377.422 141.855C387.867 138.48 400.867 136.75 416.5 136.75V133.75ZM376.5 139L375.565 136.15C369.919 138.002 365.39 140.608 362.258 144.132C359.073 147.715 357.5 152.062 357.5 157H360.5H363.5C363.5 153.438 364.594 150.535 366.742 148.118C368.944 145.641 372.415 143.498 377.435 141.85L376.5 139ZM360.5 157H357.5C357.5 163.872 359.942 169.661 364.866 174.103C369.685 178.45 376.665 181.313 385.451 182.949L386 180L386.549 177.051C378.335 175.521 372.565 172.967 368.884 169.647C365.308 166.422 363.5 162.294 363.5 157H360.5ZM386 180L385.479 182.954C402.489 185.956 424.831 189.791 452.501 194.458L453 191.5L453.499 188.542C425.836 183.876 403.511 180.044 386.521 177.046L386 180ZM453 191.5L452.463 194.452C478.981 199.273 501.009 204.333 518.572 209.623C536.177 214.925 549.123 220.407 557.597 226.003L559.25 223.5L560.903 220.997C551.71 214.926 538.115 209.242 520.303 203.877C502.45 198.501 480.185 193.394 453.537 188.548L453 191.5ZM559.25 223.5L557.624 226.021C574.309 236.78 583 255.781 583 284H586H589C589 254.552 579.858 233.22 560.876 220.979L559.25 223.5ZM586 284H583C583 315.053 572.221 341.549 550.605 363.652L552.75 365.75L554.895 367.848C577.612 344.618 589 316.614 589 284H586ZM552.75 365.75L550.605 363.652C540.039 374.457 524.008 382.757 502.193 388.344C480.394 393.927 453.018 396.75 420 396.75V399.75V402.75C453.315 402.75 481.231 399.906 503.682 394.156C526.117 388.41 543.294 379.71 554.895 367.848L552.75 365.75Z" fill="#468BDB" mask="url(#path-4-inside-1_6_88)"/>
<path d="M640.922 58.75C710.185 58.75 754.658 73.5126 775.2 102.37L775.205 102.378C795.893 131.048 806.374 162.826 806.665 197.75H693.914C693.836 183.865 692.669 172.456 690.374 163.562C688.004 154.38 684.388 147.696 679.345 143.818H679.346C669.827 136.377 656.708 132.75 640.172 132.75C623.661 132.75 609.897 137.024 598.993 145.671L598.476 146.086C592.7 150.696 588.625 160.044 585.95 173.584C583.256 187.221 581.922 205.457 581.922 228.25C581.922 251.209 583.236 269.588 585.887 283.347C588.52 297.016 592.532 306.465 598.217 311.157L598.226 311.164C609.213 320.091 623.237 324.5 640.172 324.5C656.554 324.5 669.67 320.785 679.349 313.18C684.382 309.225 688 302.55 690.373 293.44C692.667 284.632 693.835 273.389 693.914 259.75H806.665C806.364 293.52 795.89 325.054 775.198 354.382C754.486 383.575 710.092 398.5 641.172 398.5C573.329 398.5 528.133 383.333 504.909 353.547L504.365 352.841C481.124 322.18 469.422 280.702 469.422 228.25C469.422 175.626 481.126 134.32 504.36 104.165L504.362 104.162C527.42 74.073 572.711 58.75 640.922 58.75Z" stroke="#386FAE" stroke-width="3"/>
<defs>
<filter id="filter0_d_6_88" x="431.922" y="21.25" width="420.25" height="422.75" filterUnits="userSpaceOnUse" color-interpolation-filters="sRGB">
<feFlood flood-opacity="0" result="BackgroundImageFix"/>
<feColorMatrix in="SourceAlpha" type="matrix" values="0 0 0 0 0 0 0 0 0 0 0 0 0 0 0 0 0 0 127 0" result="hardAlpha"/>
<feOffset dx="4" dy="4"/>
<feGaussianBlur stdDeviation="20"/>
<feComposite in2="hardAlpha" operator="out"/>
<feColorMatrix type="matrix" values="0 0 0 0 0 0 0 0 0 0 0 0 0 0 0 0 0 0 0.25 0"/>
<feBlend mode="normal" in2="BackgroundImageFix" result="effect1_dropShadow_6_88"/>
<feBlend mode="normal" in="SourceGraphic" in2="effect1_dropShadow_6_88" result="shape"/>
</filter>
<filter id="filter1_d_6_88" x="213.77" y="21.25" width="416" height="422.5" filterUnits="userSpaceOnUse" color-interpolation-filters="sRGB">
<feFlood flood-opacity="0" result="BackgroundImageFix"/>
<feColorMatrix in="SourceAlpha" type="matrix" values="0 0 0 0 0 0 0 0 0 0 0 0 0 0 0 0 0 0 127 0" result="hardAlpha"/>
<feOffset dx="4" dy="4"/>
<feGaussianBlur stdDeviation="20"/>
<feComposite in2="hardAlpha" operator="out"/>
<feColorMatrix type="matrix" values="0 0 0 0 0 0 0 0 0 0 0 0 0 0 0 0 0 0 0.25 0"/>
<feBlend mode="normal" in2="BackgroundImageFix" result="effect1_dropShadow_6_88"/>
<feBlend mode="normal" in="SourceGraphic" in2="effect1_dropShadow_6_88" result="shape"/>
</filter>
<filter id="filter2_d_6_88" x="0" y="24.5" width="407.25" height="420.25" filterUnits="userSpaceOnUse" color-interpolation-filters="sRGB">
<feFlood flood-opacity="0" result="BackgroundImageFix"/>
<feColorMatrix in="SourceAlpha" type="matrix" values="0 0 0 0 0 0 0 0 0 0 0 0 0 0 0 0 0 0 127 0" result="hardAlpha"/>
<feOffset dx="4" dy="4"/>
<feGaussianBlur stdDeviation="20"/>
<feComposite in2="hardAlpha" operator="out"/>
<feColorMatrix type="matrix" values="0 0 0 0 0 0 0 0 0 0 0 0 0 0 0 0 0 0 0.25 0"/>
<feBlend mode="normal" in2="BackgroundImageFix" result="effect1_dropShadow_6_88"/>
<feBlend mode="normal" in="SourceGraphic" in2="effect1_dropShadow_6_88" result="shape"/>
</filter>
</defs>
</svg>
