<svg width="3122" height="518" viewBox="0 0 3122 518" fill="none" xmlns="http://www.w3.org/2000/svg">
<g filter="url(#filter0_d_5_68)">
<path d="M1827.75 400.25C1764.92 400.25 1721.17 386.5 1696.5 359C1672 331.5 1659.75 294.583 1659.75 248.25C1659.75 201.75 1672 165.083 1696.5 138.25C1721.17 111.417 1764.92 98 1827.75 98C1890.75 98 1934.5 111.417 1959 138.25C1983.5 165.083 1995.75 201.75 1995.75 248.25C1995.75 294.583 1983.5 331.5 1959 359C1934.5 386.5 1890.75 400.25 1827.75 400.25ZM1827.75 324.5C1844.08 324.5 1857.33 320.083 1867.5 311.25C1877.83 302.25 1883 281.417 1883 248.75C1883 216.083 1877.83 195.417 1867.5 186.75C1857.33 178.083 1844.08 173.75 1827.75 173.75C1811.58 173.75 1798.33 178.083 1788 186.75C1777.67 195.417 1772.5 216.083 1772.5 248.75C1772.5 281.417 1777.67 302.25 1788 311.25C1798.33 320.083 1811.58 324.5 1827.75 324.5ZM2157.04 401C2092.54 401 2048.21 387.333 2024.04 360C1999.54 332.5 1987.29 295.833 1987.29 250C1987.29 204.167 1999.46 167.417 2023.79 139.75C2047.96 112.083 2091.63 98.25 2154.79 98.25C2219.96 98.25 2264.21 112.417 2287.54 140.75C2310.54 169.25 2322.04 205.75 2322.04 250.25C2322.04 262.417 2321.29 273.333 2319.79 283H2086.79V215.75H2208.04C2205.54 199.583 2201.46 188.5 2195.79 182.5C2186.13 174.333 2172.54 170.25 2155.04 170.25C2137.88 170.25 2123.79 175.083 2112.79 184.75C2101.79 194.25 2096.29 216.083 2096.29 250.25C2096.29 285.083 2101.96 306.833 2113.29 315.5C2124.46 324.5 2139.04 329 2157.04 329V401ZM2157.04 329C2167.88 329 2176.29 328 2182.29 326C2188.46 324 2193.54 320.75 2197.54 316.25C2201.38 311.583 2205.38 305.667 2209.54 298.5L2310.29 327.5C2305.96 346.333 2296.79 360.667 2282.79 370.5C2268.79 380.667 2252.79 388.25 2234.79 393.25C2216.63 398.417 2190.71 401 2157.04 401V329ZM2328.11 398V5.49999H2441.11V398H2328.11ZM2452.13 398V5.49999H2565.13V398H2452.13ZM2653.63 398V251.5C2653.63 219.833 2650.54 199.417 2644.38 190.25C2638.38 180.917 2628.88 176.25 2615.88 176.25C2601.38 176.25 2588.96 182.833 2578.63 196C2568.29 209 2563.13 226.583 2563.13 248.75L2508.13 227.25C2508.13 199.417 2521.96 171.167 2549.63 142.5C2577.46 113.667 2613.96 99.25 2659.13 99.25C2700.46 99.25 2728.63 112.75 2743.63 139.75C2758.79 166.75 2766.38 202.083 2766.38 245.75V398H2653.63ZM2937.75 400.25C2874.92 400.25 2831.17 386.5 2806.5 359C2782 331.5 2769.75 294.583 2769.75 248.25C2769.75 201.75 2782 165.083 2806.5 138.25C2831.17 111.417 2874.92 98 2937.75 98C3000.75 98 3044.5 111.417 3069 138.25C3093.5 165.083 3105.75 201.75 3105.75 248.25C3105.75 294.583 3093.5 331.5 3069 359C3044.5 386.5 3000.75 400.25 2937.75 400.25ZM2937.75 324.5C2954.08 324.5 2967.33 320.083 2977.5 311.25C2987.83 302.25 2993 281.417 2993 248.75C2993 216.083 2987.83 195.417 2977.5 186.75C2967.33 178.083 2954.08 173.75 2937.75 173.75C2921.58 173.75 2908.33 178.083 2898 186.75C2887.67 195.417 2882.5 216.083 2882.5 248.75C2882.5 281.417 2887.67 302.25 2898 311.25C2908.33 320.083 2921.58 324.5 2937.75 324.5Z" fill="#3A3A3A"/>
</g>
<g filter="url(#filter1_d_5_68)">
<path d="M2996 323H3101.75V398H2996V323Z" fill="#51A2FF"/>
</g>
<mask id="path-3-inside-1_5_68" fill="white">
<path d="M2937.75 400.25C2874.92 400.25 2831.17 386.5 2806.5 359C2782 331.5 2769.75 294.583 2769.75 248.25C2769.75 201.75 2782 165.083 2806.5 138.25C2831.17 111.417 2874.92 98 2937.75 98C3000.75 98 3044.5 111.417 3069 138.25C3093.5 165.083 3105.75 201.75 3105.75 248.25C3105.75 294.583 3093.5 331.5 3069 359C3044.5 386.5 3000.75 400.25 2937.75 400.25ZM2937.75 324.5C2954.08 324.5 2967.33 320.083 2977.5 311.25C2987.83 302.25 2993 281.417 2993 248.75C2993 216.083 2987.83 195.417 2977.5 186.75C2967.33 178.083 2954.08 173.75 2937.75 173.75C2921.58 173.75 2908.33 178.083 2898 186.75C2887.67 195.417 2882.5 216.083 2882.5 248.75C2882.5 281.417 2887.67 302.25 2898 311.25C2908.33 320.083 2921.58 324.5 2937.75 324.5Z"/>
</mask>
<path d="M2806.5 359L2804.26 360.996L2804.27 361.003L2806.5 359ZM2806.5 138.25L2804.29 136.22L2804.28 136.227L2806.5 138.25ZM3069 138.25L3071.22 136.227V136.227L3069 138.25ZM3069 359L3071.24 360.996V360.996L3069 359ZM2977.5 311.25L2979.47 313.515L2979.47 313.512L2977.5 311.25ZM2977.5 186.75L2975.55 189.033L2975.56 189.041L2975.57 189.049L2977.5 186.75ZM2898 186.75L2896.07 184.451V184.451L2898 186.75ZM2898 311.25L2896.03 313.512L2896.04 313.521L2896.05 313.53L2898 311.25ZM2937.75 400.25V397.25C2875.2 397.25 2832.54 383.536 2808.73 356.997L2806.5 359L2804.27 361.003C2829.8 389.464 2874.63 403.25 2937.75 403.25V400.25ZM2806.5 359L2808.74 357.004C2784.85 330.185 2772.75 294.044 2772.75 248.25H2769.75H2766.75C2766.75 295.123 2779.15 332.815 2804.26 360.996L2806.5 359ZM2769.75 248.25H2772.75C2772.75 202.282 2784.85 166.412 2808.72 140.273L2806.5 138.25L2804.28 136.227C2779.15 163.755 2766.75 201.218 2766.75 248.25H2769.75ZM2806.5 138.25L2808.71 140.28C2832.51 114.388 2875.18 101 2937.75 101V98V95C2874.65 95 2829.82 108.445 2804.29 136.22L2806.5 138.25ZM2937.75 98V101C3000.49 101 3043.15 114.391 3066.78 140.273L3069 138.25L3071.22 136.227C3045.85 108.443 3001.01 95 2937.75 95V98ZM3069 138.25L3066.78 140.273C3090.65 166.412 3102.75 202.282 3102.75 248.25H3105.75H3108.75C3108.75 201.218 3096.35 163.755 3071.22 136.227L3069 138.25ZM3105.75 248.25H3102.75C3102.75 294.044 3090.65 330.185 3066.76 357.004L3069 359L3071.24 360.996C3096.35 332.815 3108.75 295.123 3108.75 248.25H3105.75ZM3069 359L3066.76 357.004C3043.13 383.533 3000.47 397.25 2937.75 397.25V400.25V403.25C3001.03 403.25 3045.87 389.467 3071.24 360.996L3069 359ZM2937.75 324.5V327.5C2954.65 327.5 2968.64 322.918 2979.47 313.515L2977.5 311.25L2975.53 308.985C2966.02 317.249 2953.52 321.5 2937.75 321.5V324.5ZM2977.5 311.25L2979.47 313.512C2985.3 308.437 2989.38 300.298 2992.04 289.597C2994.7 278.856 2996 265.214 2996 248.75H2993H2990C2990 264.952 2988.72 278.061 2986.21 288.153C2983.7 298.286 2980.04 305.063 2975.53 308.988L2977.5 311.25ZM2993 248.75H2996C2996 232.287 2994.7 218.684 2992.04 208.022C2989.38 197.405 2985.29 189.366 2979.43 184.451L2977.5 186.75L2975.57 189.049C2980.05 192.8 2983.7 199.428 2986.21 209.478C2988.72 219.482 2990 232.547 2990 248.75H2993ZM2977.5 186.75L2979.45 184.467C2968.62 175.241 2954.63 170.75 2937.75 170.75V173.75V176.75C2953.54 176.75 2966.04 180.926 2975.55 189.033L2977.5 186.75ZM2937.75 173.75V170.75C2921.02 170.75 2907.05 175.246 2896.07 184.451L2898 186.75L2899.93 189.049C2909.62 180.921 2922.14 176.75 2937.75 176.75V173.75ZM2898 186.75L2896.07 184.451C2890.21 189.366 2886.12 197.405 2883.46 208.022C2880.8 218.684 2879.5 232.287 2879.5 248.75H2882.5H2885.5C2885.5 232.547 2886.78 219.482 2889.29 209.478C2891.8 199.428 2895.45 192.8 2899.93 189.049L2898 186.75ZM2882.5 248.75H2879.5C2879.5 265.214 2880.8 278.856 2883.46 289.597C2886.12 300.298 2890.2 308.437 2896.03 313.512L2898 311.25L2899.97 308.988C2895.46 305.063 2891.8 298.286 2889.29 288.153C2886.78 278.061 2885.5 264.952 2885.5 248.75H2882.5ZM2898 311.25L2896.05 313.53C2907.03 322.913 2921.01 327.5 2937.75 327.5V324.5V321.5C2922.16 321.5 2909.64 317.254 2899.95 308.97L2898 311.25Z" fill="#3A3A3A" mask="url(#path-3-inside-1_5_68)"/>
<g filter="url(#filter2_d_5_68)">
<path d="M1275.5 399.75C1207.33 399.75 1161.92 388.333 1139.25 365.5C1116.75 342.5 1105.5 313.667 1105.5 279H1219.5C1219.5 299.667 1224.92 312.25 1235.75 316.75C1246.75 321.083 1259.67 323.25 1274.5 323.25C1289.5 323.25 1302.33 321.75 1313 318.75C1323.83 315.75 1329.25 309.583 1329.25 300.25C1329.25 289.583 1321 282.583 1304.5 279.25C1288.17 275.917 1265.92 272.083 1237.75 267.75C1186.58 258.083 1151.75 246.833 1133.25 234C1114.92 221.167 1105.75 199.917 1105.75 170.25C1105.75 139.417 1117.17 112.917 1140 90.75C1162.83 68.4167 1207.25 57.25 1273.25 57.25C1338.92 57.25 1383.25 69.1667 1406.25 93C1429.42 116.667 1441 144.75 1441 177.25H1326.75C1326.75 156.917 1321.08 144.583 1309.75 140.25C1298.42 135.917 1285.83 133.75 1272 133.75C1256.17 133.75 1242.83 135.5 1232 139C1221.33 142.5 1216 148.5 1216 157C1216 169.167 1224.5 176.833 1241.5 180C1258.5 183 1280.83 186.833 1308.5 191.5C1361.67 201.167 1397.08 211.833 1414.75 223.5C1432.58 235 1441.5 255.167 1441.5 284C1441.5 315.833 1430.42 343.083 1408.25 365.75C1386.08 388.417 1341.83 399.75 1275.5 399.75Z" fill="#468BDB"/>
<path d="M1606.9 400C1538.4 400 1492.4 384.583 1468.9 353.75C1445.4 322.75 1433.65 280.917 1433.65 228.25C1433.65 175.417 1445.4 133.75 1468.9 103.25C1492.4 72.5833 1538.32 57.25 1606.65 57.25C1675.99 57.25 1721.15 72 1742.15 101.5C1763.32 130.833 1773.9 163.417 1773.9 199.25H1658.15C1658.15 170.25 1653.49 152.167 1644.15 145C1634.99 137.833 1622.24 134.25 1605.9 134.25C1589.4 134.25 1575.82 138.583 1565.15 147.25C1554.49 155.75 1549.15 182.75 1549.15 228.25C1549.15 274.083 1554.4 301.333 1564.9 310C1575.57 318.667 1589.24 323 1605.9 323C1622.07 323 1634.82 319.333 1644.15 312C1653.49 304.667 1658.15 286.75 1658.15 258.25H1773.9C1773.9 292.917 1763.32 325.25 1742.15 355.25C1720.99 385.083 1675.9 400 1606.9 400Z" fill="#386FAE"/>
</g>
<mask id="path-6-inside-2_5_68" fill="white">
<path d="M1827.75 400.25C1764.92 400.25 1721.17 386.5 1696.5 359C1672 331.5 1659.75 294.583 1659.75 248.25C1659.75 201.75 1672 165.083 1696.5 138.25C1721.17 111.417 1764.92 98 1827.75 98C1890.75 98 1934.5 111.417 1959 138.25C1983.5 165.083 1995.75 201.75 1995.75 248.25C1995.75 294.583 1983.5 331.5 1959 359C1934.5 386.5 1890.75 400.25 1827.75 400.25ZM1827.75 324.5C1844.08 324.5 1857.33 320.083 1867.5 311.25C1877.83 302.25 1883 281.417 1883 248.75C1883 216.083 1877.83 195.417 1867.5 186.75C1857.33 178.083 1844.08 173.75 1827.75 173.75C1811.58 173.75 1798.33 178.083 1788 186.75C1777.67 195.417 1772.5 216.083 1772.5 248.75C1772.5 281.417 1777.67 302.25 1788 311.25C1798.33 320.083 1811.58 324.5 1827.75 324.5Z"/>
</mask>
<path d="M1696.5 359L1694.26 360.996L1694.27 361.003L1696.5 359ZM1696.5 138.25L1694.29 136.22L1694.28 136.227L1696.5 138.25ZM1959 138.25L1961.22 136.227V136.227L1959 138.25ZM1959 359L1961.24 360.996V360.996L1959 359ZM1867.5 311.25L1869.47 313.515L1869.47 313.512L1867.5 311.25ZM1867.5 186.75L1865.55 189.033L1865.56 189.041L1865.57 189.049L1867.5 186.75ZM1788 186.75L1786.07 184.451V184.451L1788 186.75ZM1788 311.25L1786.03 313.512L1786.04 313.521L1786.05 313.53L1788 311.25ZM1827.75 400.25V397.25C1765.2 397.25 1722.54 383.536 1698.73 356.997L1696.5 359L1694.27 361.003C1719.8 389.464 1764.63 403.25 1827.75 403.25V400.25ZM1696.5 359L1698.74 357.004C1674.85 330.185 1662.75 294.044 1662.75 248.25H1659.75H1656.75C1656.75 295.123 1669.15 332.815 1694.26 360.996L1696.5 359ZM1659.75 248.25H1662.75C1662.75 202.282 1674.85 166.412 1698.72 140.273L1696.5 138.25L1694.28 136.227C1669.15 163.755 1656.75 201.218 1656.75 248.25H1659.75ZM1696.5 138.25L1698.71 140.28C1722.51 114.388 1765.18 101 1827.75 101V98V95C1764.65 95 1719.82 108.445 1694.29 136.22L1696.5 138.25ZM1827.75 98V101C1890.49 101 1933.15 114.391 1956.78 140.273L1959 138.25L1961.22 136.227C1935.85 108.443 1891.01 95 1827.75 95V98ZM1959 138.25L1956.78 140.273C1980.65 166.412 1992.75 202.282 1992.75 248.25H1995.75H1998.75C1998.75 201.218 1986.35 163.755 1961.22 136.227L1959 138.25ZM1995.75 248.25H1992.75C1992.75 294.044 1980.65 330.185 1956.76 357.004L1959 359L1961.24 360.996C1986.35 332.815 1998.75 295.123 1998.75 248.25H1995.75ZM1959 359L1956.76 357.004C1933.13 383.533 1890.47 397.25 1827.75 397.25V400.25V403.25C1891.03 403.25 1935.87 389.467 1961.24 360.996L1959 359ZM1827.75 324.5V327.5C1844.65 327.5 1858.64 322.918 1869.47 313.515L1867.5 311.25L1865.53 308.985C1856.02 317.249 1843.52 321.5 1827.75 321.5V324.5ZM1867.5 311.25L1869.47 313.512C1875.3 308.437 1879.38 300.298 1882.04 289.597C1884.7 278.856 1886 265.214 1886 248.75H1883H1880C1880 264.952 1878.72 278.061 1876.21 288.153C1873.7 298.286 1870.04 305.063 1865.53 308.988L1867.5 311.25ZM1883 248.75H1886C1886 232.287 1884.7 218.684 1882.04 208.022C1879.38 197.405 1875.29 189.366 1869.43 184.451L1867.5 186.75L1865.57 189.049C1870.05 192.8 1873.7 199.428 1876.21 209.478C1878.72 219.482 1880 232.547 1880 248.75H1883ZM1867.5 186.75L1869.45 184.467C1858.62 175.241 1844.63 170.75 1827.75 170.75V173.75V176.75C1843.54 176.75 1856.04 180.926 1865.55 189.033L1867.5 186.75ZM1827.75 173.75V170.75C1811.02 170.75 1797.05 175.246 1786.07 184.451L1788 186.75L1789.93 189.049C1799.62 180.921 1812.14 176.75 1827.75 176.75V173.75ZM1788 186.75L1786.07 184.451C1780.21 189.366 1776.12 197.405 1773.46 208.022C1770.8 218.684 1769.5 232.287 1769.5 248.75H1772.5H1775.5C1775.5 232.547 1776.78 219.482 1779.29 209.478C1781.8 199.428 1785.45 192.8 1789.93 189.049L1788 186.75ZM1772.5 248.75H1769.5C1769.5 265.214 1770.8 278.856 1773.46 289.597C1776.12 300.298 1780.2 308.437 1786.03 313.512L1788 311.25L1789.97 308.988C1785.46 305.063 1781.8 298.286 1779.29 288.153C1776.78 278.061 1775.5 264.952 1775.5 248.75H1772.5ZM1788 311.25L1786.05 313.53C1797.03 322.913 1811.01 327.5 1827.75 327.5V324.5V321.5C1812.16 321.5 1799.64 317.254 1789.95 308.97L1788 311.25Z" fill="#3A3A3A" mask="url(#path-6-inside-2_5_68)"/>
<g filter="url(#filter3_d_5_68)">
<path d="M394.75 400.25C331.917 400.25 288.167 386.5 263.5 359C239 331.5 226.75 294.583 226.75 248.25C226.75 201.75 239 165.083 263.5 138.25C288.167 111.417 331.917 98 394.75 98C457.75 98 501.5 111.417 526 138.25C550.5 165.083 562.75 201.75 562.75 248.25C562.75 294.583 550.5 331.5 526 359C501.5 386.5 457.75 400.25 394.75 400.25ZM394.75 324.5C411.083 324.5 424.333 320.083 434.5 311.25C444.833 302.25 450 281.417 450 248.75C450 216.083 444.833 195.417 434.5 186.75C424.333 178.083 411.083 173.75 394.75 173.75C378.583 173.75 365.333 178.083 355 186.75C344.667 195.417 339.5 216.083 339.5 248.75C339.5 281.417 344.667 302.25 355 311.25C365.333 320.083 378.583 324.5 394.75 324.5ZM680.043 401.5C659.71 401.5 641.793 399.917 626.293 396.75C610.96 393.583 597.96 388.417 587.293 381.25C576.626 373.917 568.626 364.25 563.293 352.25C557.96 340.083 555.293 325.167 555.293 307.5C555.293 291 557.793 277 562.793 265.5C567.793 254 575.376 244.667 585.543 237.5C595.876 230.333 608.876 225.083 624.543 221.75C640.21 218.417 658.626 216.75 679.793 216.75H770.543V210C770.543 200.5 768.543 193.167 764.543 188C760.71 182.667 755.126 178.917 747.793 176.75C740.46 174.583 731.626 173.5 721.293 173.5C714.126 173.5 707.043 174.417 700.043 176.25C693.043 178.083 686.793 181.417 681.293 186.25C675.96 190.917 671.96 197.583 669.293 206.25L559.043 175C563.21 160.667 570.46 148.583 580.793 138.75C591.293 128.917 603.876 121.083 618.543 115.25C633.21 109.417 649.293 105.167 666.793 102.5C684.293 99.8333 702.293 98.5 720.793 98.5C756.626 98.5 786.626 102.333 810.793 110C834.96 117.667 853.21 130.083 865.543 147.25C877.876 164.417 884.043 187.417 884.043 216.25V398H790.293L780.293 367.25C777.126 371.917 772.293 376.333 765.793 380.5C759.293 384.5 751.543 388.083 742.543 391.25C733.71 394.417 723.96 396.917 713.293 398.75C702.626 400.583 691.543 401.5 680.043 401.5ZM705.793 330C714.126 330 722.46 329.167 730.793 327.5C739.126 325.667 746.626 323.167 753.293 320C760.126 316.667 765.293 313 768.793 309V277H706.793C700.46 277 694.876 277.333 690.043 278C685.376 278.667 681.543 279.917 678.543 281.75C675.543 283.417 673.293 286 671.793 289.5C670.293 293 669.543 297.583 669.543 303.25C669.543 308.75 670.293 313.25 671.793 316.75C673.46 320.083 675.876 322.75 679.043 324.75C682.21 326.583 686.043 327.917 690.543 328.75C695.043 329.583 700.126 330 705.793 330ZM759.543 88.75C751.043 88.75 743.71 87.5833 737.543 85.25C731.376 82.75 725.793 80 720.793 77C715.793 73.8333 711.043 71.0833 706.543 68.75C702.043 66.25 697.376 65 692.543 65C687.376 65 683.376 66.1667 680.543 68.5C677.71 70.8333 675.793 73.6667 674.793 77C673.793 80.3333 673.293 83.25 673.293 85.75H619.543C619.71 82.25 620.126 77.9166 620.793 72.75C621.626 67.4166 623.21 61.8333 625.543 56C628.043 50.1666 631.626 44.75 636.293 39.75C641.126 34.75 647.543 30.6666 655.543 27.5C663.543 24.3333 673.46 22.75 685.293 22.75C693.793 22.75 701.043 23.9166 707.043 26.25C713.21 28.4166 718.71 31.0833 723.543 34.25C728.376 37.25 732.96 39.9167 737.293 42.25C741.626 44.4166 746.21 45.5 751.043 45.5C755.543 45.5 759.21 44.3333 762.043 42C765.043 39.6667 767.126 36.8333 768.293 33.5C769.626 30.1667 770.293 27.25 770.293 24.75H823.543C823.71 28.25 823.293 32.75 822.293 38.25C821.46 43.5833 819.793 49.1666 817.293 55C814.793 60.6666 811.21 66.0833 806.543 71.25C801.876 76.4167 795.71 80.6667 788.043 84C780.543 87.1666 771.043 88.75 759.543 88.75ZM1051.8 400.25C988.967 400.25 945.217 386.5 920.551 359C896.051 331.5 883.801 294.583 883.801 248.25C883.801 201.75 896.051 165.083 920.551 138.25C945.217 111.417 988.967 98 1051.8 98C1114.8 98 1158.55 111.417 1183.05 138.25C1207.55 165.083 1219.8 201.75 1219.8 248.25C1219.8 294.583 1207.55 331.5 1183.05 359C1158.55 386.5 1114.8 400.25 1051.8 400.25ZM1051.8 324.5C1068.13 324.5 1081.38 320.083 1091.55 311.25C1101.88 302.25 1107.05 281.417 1107.05 248.75C1107.05 216.083 1101.88 195.417 1091.55 186.75C1081.38 178.083 1068.13 173.75 1051.8 173.75C1035.63 173.75 1022.38 178.083 1012.05 186.75C1001.72 195.417 996.551 216.083 996.551 248.75C996.551 281.417 1001.72 302.25 1012.05 311.25C1022.38 320.083 1035.63 324.5 1051.8 324.5Z" fill="#3A3A3A"/>
</g>
<g filter="url(#filter4_d_5_68)">
<mask id="path-9-inside-3_5_68" fill="white">
<path d="M1275.5 399.75C1207.33 399.75 1161.92 388.333 1139.25 365.5C1116.75 342.5 1105.5 313.667 1105.5 279H1219.5C1219.5 299.667 1224.92 312.25 1235.75 316.75C1246.75 321.083 1259.67 323.25 1274.5 323.25C1289.5 323.25 1302.33 321.75 1313 318.75C1323.83 315.75 1329.25 309.583 1329.25 300.25C1329.25 289.583 1321 282.583 1304.5 279.25C1288.17 275.917 1265.92 272.083 1237.75 267.75C1186.58 258.083 1151.75 246.833 1133.25 234C1114.92 221.167 1105.75 199.917 1105.75 170.25C1105.75 139.417 1117.17 112.917 1140 90.75C1162.83 68.4167 1207.25 57.25 1273.25 57.25C1338.92 57.25 1383.25 69.1667 1406.25 93C1429.42 116.667 1441 144.75 1441 177.25H1326.75C1326.75 156.917 1321.08 144.583 1309.75 140.25C1298.42 135.917 1285.83 133.75 1272 133.75C1256.17 133.75 1242.83 135.5 1232 139C1221.33 142.5 1216 148.5 1216 157C1216 169.167 1224.5 176.833 1241.5 180C1258.5 183 1280.83 186.833 1308.5 191.5C1361.67 201.167 1397.08 211.833 1414.75 223.5C1432.58 235 1441.5 255.167 1441.5 284C1441.5 315.833 1430.42 343.083 1408.25 365.75C1386.08 388.417 1341.83 399.75 1275.5 399.75Z"/>
</mask>
<path d="M1139.25 365.5L1137.11 367.598L1137.11 367.606L1137.12 367.614L1139.25 365.5ZM1105.5 279V276H1102.5V279H1105.5ZM1219.5 279H1222.5V276H1219.5V279ZM1235.75 316.75L1234.6 319.52L1234.62 319.531L1234.65 319.541L1235.75 316.75ZM1313 318.75L1312.2 315.859L1312.19 315.862L1313 318.75ZM1304.5 279.25L1303.9 282.189L1303.91 282.191L1304.5 279.25ZM1237.75 267.75L1237.19 270.698L1237.24 270.707L1237.29 270.715L1237.75 267.75ZM1133.25 234L1131.53 236.458L1131.54 236.465L1133.25 234ZM1140 90.75L1142.09 92.9025L1142.1 92.8947L1140 90.75ZM1406.25 93L1404.09 95.0833L1404.1 95.0909L1404.11 95.0985L1406.25 93ZM1441 177.25V180.25H1444V177.25H1441ZM1326.75 177.25H1323.75V180.25H1326.75V177.25ZM1232 139L1231.08 136.145L1231.06 136.15L1232 139ZM1241.5 180L1240.95 182.949L1240.96 182.952L1240.98 182.954L1241.5 180ZM1308.5 191.5L1309.04 188.548L1309.02 188.545L1309 188.542L1308.5 191.5ZM1414.75 223.5L1413.1 226.003L1413.11 226.012L1413.12 226.021L1414.75 223.5ZM1408.25 365.75L1406.11 363.652L1408.25 365.75ZM1275.5 399.75V396.75C1241.56 396.75 1213.43 393.906 1191.04 388.278C1168.64 382.646 1152.19 374.278 1141.38 363.386L1139.25 365.5L1137.12 367.614C1148.98 379.556 1166.57 388.313 1189.58 394.097C1212.61 399.886 1241.27 402.75 1275.5 402.75V399.75ZM1139.25 365.5L1141.39 363.402C1119.49 341.009 1108.5 312.949 1108.5 279H1105.5H1102.5C1102.5 314.384 1114.01 343.991 1137.11 367.598L1139.25 365.5ZM1105.5 279V282H1219.5V279V276H1105.5V279ZM1219.5 279H1216.5C1216.5 299.889 1221.95 314.267 1234.6 319.52L1235.75 316.75L1236.9 313.979C1227.88 310.233 1222.5 299.444 1222.5 279H1219.5ZM1235.75 316.75L1234.65 319.541C1246.08 324.043 1259.38 326.25 1274.5 326.25V323.25V320.25C1259.95 320.25 1247.42 318.124 1236.85 313.959L1235.75 316.75ZM1274.5 323.25V326.25C1289.68 326.25 1302.81 324.733 1313.81 321.638L1313 318.75L1312.19 315.862C1301.86 318.767 1289.32 320.25 1274.5 320.25V323.25ZM1313 318.75L1313.8 321.641C1319.58 320.041 1324.23 317.511 1327.44 313.855C1330.7 310.149 1332.25 305.539 1332.25 300.25H1329.25H1326.25C1326.25 304.295 1325.1 307.434 1322.93 309.895C1320.73 312.405 1317.25 314.459 1312.2 315.859L1313 318.75ZM1329.25 300.25H1332.25C1332.25 294.021 1329.79 288.773 1325 284.712C1320.33 280.751 1313.59 278.026 1305.09 276.309L1304.5 279.25L1303.91 282.191C1311.91 283.808 1317.54 286.249 1321.12 289.288C1324.59 292.227 1326.25 295.812 1326.25 300.25H1329.25ZM1304.5 279.25L1305.1 276.311C1288.7 272.963 1266.39 269.121 1238.21 264.785L1237.75 267.75L1237.29 270.715C1265.44 275.045 1287.64 278.87 1303.9 282.189L1304.5 279.25ZM1237.75 267.75L1238.31 264.802C1187.15 255.137 1152.89 243.971 1134.96 231.535L1133.25 234L1131.54 236.465C1150.61 249.696 1186.02 261.029 1237.19 270.698L1237.75 267.75ZM1133.25 234L1134.97 231.542C1117.69 219.445 1108.75 199.289 1108.75 170.25H1105.75H1102.75C1102.75 200.545 1112.14 222.888 1131.53 236.458L1133.25 234ZM1105.75 170.25H1108.75C1108.75 140.257 1119.82 114.525 1142.09 92.9025L1140 90.75L1137.91 88.5975C1114.52 111.309 1102.75 138.577 1102.75 170.25H1105.75ZM1140 90.75L1142.1 92.8947C1153 82.2264 1169.27 74.0413 1191.17 68.5345C1213.06 63.0312 1240.4 60.25 1273.25 60.25V57.25V54.25C1240.1 54.25 1212.23 57.0521 1189.71 62.7155C1167.19 68.3754 1149.83 76.9402 1137.9 88.6053L1140 90.75ZM1273.25 57.25V60.25C1338.8 60.25 1382.01 72.198 1404.09 95.0833L1406.25 93L1408.41 90.9167C1384.49 66.1353 1339.03 54.25 1273.25 54.25V57.25ZM1406.25 93L1404.11 95.0985C1426.74 118.216 1438 145.551 1438 177.25H1441H1444C1444 143.949 1432.1 115.117 1408.39 90.9014L1406.25 93ZM1441 177.25V174.25H1326.75V177.25V180.25H1441V177.25ZM1326.75 177.25H1329.75C1329.75 156.609 1324 142.485 1310.82 137.448L1309.75 140.25L1308.68 143.052C1318.17 146.682 1323.75 157.224 1323.75 177.25H1326.75ZM1309.75 140.25L1310.82 137.448C1299.1 132.967 1286.15 130.75 1272 130.75V133.75V136.75C1285.52 136.75 1297.73 138.867 1308.68 143.052L1309.75 140.25ZM1272 133.75V130.75C1255.97 130.75 1242.3 132.52 1231.08 136.145L1232 139L1232.92 141.855C1243.37 138.48 1256.37 136.75 1272 136.75V133.75ZM1232 139L1231.06 136.15C1225.42 138.002 1220.89 140.608 1217.76 144.132C1214.57 147.715 1213 152.062 1213 157H1216H1219C1219 153.438 1220.09 150.535 1222.24 148.118C1224.44 145.641 1227.91 143.498 1232.94 141.85L1232 139ZM1216 157H1213C1213 163.872 1215.44 169.661 1220.37 174.103C1225.19 178.45 1232.16 181.313 1240.95 182.949L1241.5 180L1242.05 177.051C1233.84 175.521 1228.06 172.967 1224.38 169.647C1220.81 166.422 1219 162.294 1219 157H1216ZM1241.5 180L1240.98 182.954C1257.99 185.956 1280.33 189.791 1308 194.458L1308.5 191.5L1309 188.542C1281.34 183.876 1259.01 180.044 1242.02 177.046L1241.5 180ZM1308.5 191.5L1307.96 194.452C1334.48 199.273 1356.51 204.333 1374.07 209.623C1391.68 214.925 1404.62 220.407 1413.1 226.003L1414.75 223.5L1416.4 220.997C1407.21 214.926 1393.62 209.242 1375.8 203.877C1357.95 198.501 1335.69 193.394 1309.04 188.548L1308.5 191.5ZM1414.75 223.5L1413.12 226.021C1429.81 236.78 1438.5 255.781 1438.5 284H1441.5H1444.5C1444.5 254.552 1435.36 233.22 1416.38 220.979L1414.75 223.5ZM1441.5 284H1438.5C1438.5 315.053 1427.72 341.549 1406.11 363.652L1408.25 365.75L1410.39 367.848C1433.11 344.618 1444.5 316.614 1444.5 284H1441.5ZM1408.25 365.75L1406.11 363.652C1395.54 374.457 1379.51 382.757 1357.69 388.344C1335.89 393.927 1308.52 396.75 1275.5 396.75V399.75V402.75C1308.82 402.75 1336.73 399.906 1359.18 394.156C1381.62 388.41 1398.79 379.71 1410.39 367.848L1408.25 365.75Z" fill="#468BDB" mask="url(#path-9-inside-3_5_68)"/>
</g>
<g filter="url(#filter5_d_5_68)">
<path d="M176 400.75C122 400.75 81.25 392 53.75 374.5C26.25 356.833 12.5 329.75 12.5 293.25V246.75H126.5V280.25C126.5 294.583 129.75 305.583 136.25 313.25C142.917 320.917 156.083 324.75 175.75 324.75C195.25 324.75 208.5 321.333 215.5 314.5C222.5 307.5 226 297.083 226 283.25V60.5H339.75V299.75C339.75 332.583 326.083 357.667 298.75 375C271.583 392.167 230.667 400.75 176 400.75Z" fill="#51A2FF"/>
</g>
<mask id="path-12-inside-4_5_68" fill="white">
<path d="M394.75 400.25C331.917 400.25 288.167 386.5 263.5 359C239 331.5 226.75 294.583 226.75 248.25C226.75 201.75 239 165.083 263.5 138.25C288.167 111.417 331.917 98 394.75 98C457.75 98 501.5 111.417 526 138.25C550.5 165.083 562.75 201.75 562.75 248.25C562.75 294.583 550.5 331.5 526 359C501.5 386.5 457.75 400.25 394.75 400.25ZM394.75 324.5C411.083 324.5 424.333 320.083 434.5 311.25C444.833 302.25 450 281.417 450 248.75C450 216.083 444.833 195.417 434.5 186.75C424.333 178.083 411.083 173.75 394.75 173.75C378.583 173.75 365.333 178.083 355 186.75C344.667 195.417 339.5 216.083 339.5 248.75C339.5 281.417 344.667 302.25 355 311.25C365.333 320.083 378.583 324.5 394.75 324.5Z"/>
</mask>
<path d="M263.5 359L261.26 360.996L261.267 361.003L263.5 359ZM263.5 138.25L261.291 136.22L261.285 136.227L263.5 138.25ZM526 138.25L528.215 136.227V136.227L526 138.25ZM526 359L528.24 360.996V360.996L526 359ZM434.5 311.25L436.468 313.515L436.47 313.512L434.5 311.25ZM434.5 186.75L432.554 189.033L432.563 189.041L432.572 189.049L434.5 186.75ZM355 186.75L353.072 184.451V184.451L355 186.75ZM355 311.25L353.03 313.512L353.04 313.521L353.051 313.53L355 311.25ZM394.75 400.25V397.25C332.2 397.25 289.538 383.536 265.733 356.997L263.5 359L261.267 361.003C286.795 389.464 331.634 403.25 394.75 403.25V400.25ZM263.5 359L265.74 357.004C241.846 330.185 229.75 294.044 229.75 248.25H226.75H223.75C223.75 295.123 236.154 332.815 261.26 360.996L263.5 359ZM226.75 248.25H229.75C229.75 202.282 241.849 166.412 265.715 140.273L263.5 138.25L261.285 136.227C236.151 163.755 223.75 201.218 223.75 248.25H226.75ZM263.5 138.25L265.709 140.28C289.51 114.388 332.183 101 394.75 101V98V95C331.651 95 286.823 108.445 261.291 136.22L263.5 138.25ZM394.75 98V101C457.49 101 500.153 114.391 523.785 140.273L526 138.25L528.215 136.227C502.847 108.443 458.01 95 394.75 95V98ZM526 138.25L523.785 140.273C547.651 166.412 559.75 202.282 559.75 248.25H562.75H565.75C565.75 201.218 553.349 163.755 528.215 136.227L526 138.25ZM562.75 248.25H559.75C559.75 294.044 547.654 330.185 523.76 357.004L526 359L528.24 360.996C553.346 332.815 565.75 295.123 565.75 248.25H562.75ZM526 359L523.76 357.004C500.125 383.533 457.473 397.25 394.75 397.25V400.25V403.25C458.027 403.25 502.875 389.467 528.24 360.996L526 359ZM394.75 324.5V327.5C411.646 327.5 425.645 322.918 436.468 313.515L434.5 311.25L432.532 308.985C423.022 317.249 410.521 321.5 394.75 321.5V324.5ZM434.5 311.25L436.47 313.512C442.297 308.437 446.383 300.298 449.037 289.597C451.701 278.856 453 265.214 453 248.75H450H447C447 264.952 445.716 278.061 443.213 288.153C440.7 298.286 437.036 305.063 432.53 308.988L434.5 311.25ZM450 248.75H453C453 232.287 451.701 218.684 449.035 208.022C446.381 197.405 442.288 189.366 436.428 184.451L434.5 186.75L432.572 189.049C437.046 192.8 440.702 199.428 443.215 209.478C445.716 219.482 447 232.547 447 248.75H450ZM434.5 186.75L436.446 184.467C425.623 175.241 411.632 170.75 394.75 170.75V173.75V176.75C410.535 176.75 423.044 180.926 432.554 189.033L434.5 186.75ZM394.75 173.75V170.75C378.024 170.75 364.048 175.246 353.072 184.451L355 186.75L356.928 189.049C366.619 180.921 379.142 176.75 394.75 176.75V173.75ZM355 186.75L353.072 184.451C347.212 189.366 343.119 197.405 340.465 208.022C337.799 218.684 336.5 232.287 336.5 248.75H339.5H342.5C342.5 232.547 343.784 219.482 346.285 209.478C348.798 199.428 352.454 192.8 356.928 189.049L355 186.75ZM339.5 248.75H336.5C336.5 265.214 337.799 278.856 340.463 289.597C343.117 300.298 347.203 308.437 353.03 313.512L355 311.25L356.97 308.988C352.464 305.063 348.8 298.286 346.287 288.153C343.784 278.061 342.5 264.952 342.5 248.75H339.5ZM355 311.25L353.051 313.53C364.026 322.913 378.01 327.5 394.75 327.5V324.5V321.5C379.156 321.5 366.64 317.254 356.949 308.97L355 311.25Z" fill="#3A3A3A" mask="url(#path-12-inside-4_5_68)"/>
<defs>
<filter id="filter0_d_5_68" x="1659.75" y="5.5" width="1454" height="403.5" filterUnits="userSpaceOnUse" color-interpolation-filters="sRGB">
<feFlood flood-opacity="0" result="BackgroundImageFix"/>
<feColorMatrix in="SourceAlpha" type="matrix" values="0 0 0 0 0 0 0 0 0 0 0 0 0 0 0 0 0 0 127 0" result="hardAlpha"/>
<feOffset dx="4" dy="4"/>
<feGaussianBlur stdDeviation="2"/>
<feComposite in2="hardAlpha" operator="out"/>
<feColorMatrix type="matrix" values="0 0 0 0 0 0 0 0 0 0 0 0 0 0 0 0 0 0 0.25 0"/>
<feBlend mode="normal" in2="BackgroundImageFix" result="effect1_dropShadow_5_68"/>
<feBlend mode="normal" in="SourceGraphic" in2="effect1_dropShadow_5_68" result="shape"/>
</filter>
<filter id="filter1_d_5_68" x="2996" y="323" width="113.75" height="83" filterUnits="userSpaceOnUse" color-interpolation-filters="sRGB">
<feFlood flood-opacity="0" result="BackgroundImageFix"/>
<feColorMatrix in="SourceAlpha" type="matrix" values="0 0 0 0 0 0 0 0 0 0 0 0 0 0 0 0 0 0 127 0" result="hardAlpha"/>
<feOffset dx="4" dy="4"/>
<feGaussianBlur stdDeviation="2"/>
<feComposite in2="hardAlpha" operator="out"/>
<feColorMatrix type="matrix" values="0 0 0 0 0 0 0 0 0 0 0 0 0 0 0 0 0 0 0.25 0"/>
<feBlend mode="normal" in2="BackgroundImageFix" result="effect1_dropShadow_5_68"/>
<feBlend mode="normal" in="SourceGraphic" in2="effect1_dropShadow_5_68" result="shape"/>
</filter>
<filter id="filter2_d_5_68" x="1105.5" y="57.25" width="676.402" height="350.75" filterUnits="userSpaceOnUse" color-interpolation-filters="sRGB">
<feFlood flood-opacity="0" result="BackgroundImageFix"/>
<feColorMatrix in="SourceAlpha" type="matrix" values="0 0 0 0 0 0 0 0 0 0 0 0 0 0 0 0 0 0 127 0" result="hardAlpha"/>
<feOffset dx="4" dy="4"/>
<feGaussianBlur stdDeviation="2"/>
<feComposite in2="hardAlpha" operator="out"/>
<feColorMatrix type="matrix" values="0 0 0 0 0 0 0 0 0 0 0 0 0 0 0 0 0 0 0.25 0"/>
<feBlend mode="normal" in2="BackgroundImageFix" result="effect1_dropShadow_5_68"/>
<feBlend mode="normal" in="SourceGraphic" in2="effect1_dropShadow_5_68" result="shape"/>
</filter>
<filter id="filter3_d_5_68" x="226.75" y="22.75" width="1001.05" height="386.75" filterUnits="userSpaceOnUse" color-interpolation-filters="sRGB">
<feFlood flood-opacity="0" result="BackgroundImageFix"/>
<feColorMatrix in="SourceAlpha" type="matrix" values="0 0 0 0 0 0 0 0 0 0 0 0 0 0 0 0 0 0 127 0" result="hardAlpha"/>
<feOffset dx="4" dy="4"/>
<feGaussianBlur stdDeviation="2"/>
<feComposite in2="hardAlpha" operator="out"/>
<feColorMatrix type="matrix" values="0 0 0 0 0 0 0 0 0 0 0 0 0 0 0 0 0 0 0.25 0"/>
<feBlend mode="normal" in2="BackgroundImageFix" result="effect1_dropShadow_5_68"/>
<feBlend mode="normal" in="SourceGraphic" in2="effect1_dropShadow_5_68" result="shape"/>
</filter>
<filter id="filter4_d_5_68" x="1105.5" y="57.25" width="344" height="350.5" filterUnits="userSpaceOnUse" color-interpolation-filters="sRGB">
<feFlood flood-opacity="0" result="BackgroundImageFix"/>
<feColorMatrix in="SourceAlpha" type="matrix" values="0 0 0 0 0 0 0 0 0 0 0 0 0 0 0 0 0 0 127 0" result="hardAlpha"/>
<feOffset dx="4" dy="4"/>
<feGaussianBlur stdDeviation="2"/>
<feComposite in2="hardAlpha" operator="out"/>
<feColorMatrix type="matrix" values="0 0 0 0 0 0 0 0 0 0 0 0 0 0 0 0 0 0 0.25 0"/>
<feBlend mode="normal" in2="BackgroundImageFix" result="effect1_dropShadow_5_68"/>
<feBlend mode="normal" in="SourceGraphic" in2="effect1_dropShadow_5_68" result="shape"/>
</filter>
<filter id="filter5_d_5_68" x="12.5" y="60.5" width="335.25" height="348.25" filterUnits="userSpaceOnUse" color-interpolation-filters="sRGB">
<feFlood flood-opacity="0" result="BackgroundImageFix"/>
<feColorMatrix in="SourceAlpha" type="matrix" values="0 0 0 0 0 0 0 0 0 0 0 0 0 0 0 0 0 0 127 0" result="hardAlpha"/>
<feOffset dx="4" dy="4"/>
<feGaussianBlur stdDeviation="2"/>
<feComposite in2="hardAlpha" operator="out"/>
<feColorMatrix type="matrix" values="0 0 0 0 0 0 0 0 0 0 0 0 0 0 0 0 0 0 0.25 0"/>
<feBlend mode="normal" in2="BackgroundImageFix" result="effect1_dropShadow_5_68"/>
<feBlend mode="normal" in="SourceGraphic" in2="effect1_dropShadow_5_68" result="shape"/>
</filter>
</defs>
</svg>
