<svg width="853" height="518" viewBox="0 0 853 518" fill="none" xmlns="http://www.w3.org/2000/svg">
<g filter="url(#filter0_d_6_88)">
<path d="M641.172 400C572.672 400 526.672 384.583 503.172 353.75C479.672 322.75 467.922 280.917 467.922 228.25C467.922 175.417 479.672 133.75 503.172 103.25C526.672 72.5833 572.589 57.25 640.922 57.25C710.255 57.25 755.422 72 776.422 101.5C797.589 130.833 808.172 163.417 808.172 199.25H692.422C692.422 170.25 687.755 152.167 678.422 145C669.255 137.833 656.505 134.25 640.172 134.25C623.672 134.25 610.089 138.583 599.422 147.25C588.755 155.75 583.422 182.75 583.422 228.25C583.422 274.083 588.672 301.333 599.172 310C609.839 318.667 623.505 323 640.172 323C656.339 323 669.089 319.333 678.422 312C687.755 304.667 692.422 286.75 692.422 258.25H808.172C808.172 292.917 797.589 325.25 776.422 355.25C755.255 385.083 710.172 400 641.172 400Z" fill="#386FAE"/>
</g>
<g filter="url(#filter1_d_6_88)">
<path d="M419.77 399.75C351.603 399.75 306.186 388.333 283.52 365.5C261.02 342.5 249.77 313.667 249.77 279H363.77C363.77 299.667 369.186 312.25 380.02 316.75C391.02 321.083 403.936 323.25 418.77 323.25C433.77 323.25 446.603 321.75 457.27 318.75C468.103 315.75 473.52 309.583 473.52 300.25C473.52 289.583 465.27 282.583 448.77 279.25C432.436 275.917 410.186 272.083 382.02 267.75C330.853 258.083 296.02 246.833 277.52 234C259.186 221.167 250.02 199.917 250.02 170.25C250.02 139.417 261.436 112.917 284.27 90.75C307.103 68.4167 351.52 57.25 417.52 57.25C483.186 57.25 527.52 69.1667 550.52 93C573.686 116.667 585.27 144.75 585.27 177.25H471.02C471.02 156.917 465.353 144.583 454.02 140.25C442.686 135.917 430.103 133.75 416.27 133.75C400.436 133.75 387.103 135.5 376.27 139C365.603 142.5 360.27 148.5 360.27 157C360.27 169.167 368.77 176.833 385.77 180C402.77 183 425.103 186.833 452.77 191.5C505.936 201.167 541.353 211.833 559.02 223.5C576.853 235 585.77 255.167 585.77 284C585.77 315.833 574.686 343.083 552.52 365.75C530.353 388.417 486.103 399.75 419.77 399.75Z" fill="#468BDB"/>
</g>
<g filter="url(#filter2_d_6_88)">
<path d="M199.5 400.75C145.5 400.75 104.75 392 77.25 374.5C49.75 356.833 36 329.75 36 293.25V246.75H150V280.25C150 294.583 153.25 305.583 159.75 313.25C166.417 320.917 179.583 324.75 199.25 324.75C218.75 324.75 232 321.333 239 314.5C246 307.5 249.5 297.083 249.5 283.25V60.5H363.25V299.75C363.25 332.583 349.583 357.667 322.25 375C295.083 392.167 254.167 400.75 199.5 400.75Z" fill="#51A2FF"/>
</g>
<mask id="path-4-inside-1_6_88" fill="white">
<path d="M420 399.75C351.833 399.75 306.417 388.333 283.75 365.5C261.25 342.5 250 313.667 250 279H364C364 299.667 369.417 312.25 380.25 316.75C391.25 321.083 404.167 323.25 419 323.25C434 323.25 446.833 321.75 457.5 318.75C468.333 315.75 473.75 309.583 473.75 300.25C473.75 289.583 465.5 282.583 449 279.25C432.667 275.917 410.417 272.083 382.25 267.75C331.083 258.083 296.25 246.833 277.75 234C259.417 221.167 250.25 199.917 250.25 170.25C250.25 139.417 261.667 112.917 284.5 90.75C307.333 68.4167 351.75 57.25 417.75 57.25C483.417 57.25 527.75 69.1667 550.75 93C573.917 116.667 585.5 144.75 585.5 177.25H471.25C471.25 156.917 465.583 144.583 454.25 140.25C442.917 135.917 430.333 133.75 416.5 133.75C400.667 133.75 387.333 135.5 376.5 139C365.833 142.5 360.5 148.5 360.5 157C360.5 169.167 369 176.833 386 180C403 183 425.333 186.833 453 191.5C506.167 201.167 541.583 211.833 559.25 223.5C577.083 235 586 255.167 586 284C586 315.833 574.917 343.083 552.75 365.75C530.583 388.417 486.333 399.75 420 399.75Z"/>
</mask>
<path d="M283.75 365.5L276.602 372.493L276.627 372.519L276.653 372.545L283.75 365.5ZM250 279V269H240V279H250ZM364 279H374V269H364V279ZM380.25 316.75L376.414 325.985L376.499 326.02L376.585 326.054L380.25 316.75ZM457.5 318.75L454.831 309.113L454.812 309.118L454.793 309.123L457.5 318.75ZM449 279.25L447 289.048L447.01 289.05L447.02 289.052L449 279.25ZM382.25 267.75L380.394 277.576L380.561 277.608L380.729 277.634L382.25 267.75ZM277.75 234L272.015 242.192L272.033 242.204L272.05 242.217L277.75 234ZM284.5 90.75L291.466 97.925L291.479 97.912L291.492 97.8989L284.5 90.75ZM550.75 93L543.554 99.9442L543.579 99.9698L543.604 99.9952L550.75 93ZM585.5 177.25V187.25H595.5V177.25H585.5ZM471.25 177.25H461.25V187.25H471.25V177.25ZM376.5 139L373.426 129.484L373.404 129.491L373.382 129.498L376.5 139ZM386 180L384.169 189.831L384.215 189.84L384.262 189.848L386 180ZM453 191.5L454.789 181.661L454.726 181.65L454.663 181.639L453 191.5ZM559.25 223.5L553.739 231.845L553.785 231.875L553.831 231.904L559.25 223.5ZM552.75 365.75L545.601 358.758L552.75 365.75ZM420 399.75V389.75C386.402 389.75 358.89 386.929 337.25 381.489C315.552 376.035 300.442 368.12 290.847 358.455L283.75 365.5L276.653 372.545C289.725 385.713 308.657 394.924 332.375 400.886C356.151 406.863 385.432 409.75 420 409.75V399.75ZM283.75 365.5L290.898 358.507C270.377 337.529 260 311.275 260 279H250H240C240 316.058 252.123 347.471 276.602 372.493L283.75 365.5ZM250 279V289H364V279V269H250V279ZM364 279H354C354 300.408 359.535 318.974 376.414 325.985L380.25 316.75L384.086 307.515C379.298 305.526 374 298.925 374 279H364ZM380.25 316.75L376.585 326.054C389.007 330.948 403.219 333.25 419 333.25V323.25V313.25C405.114 313.25 393.493 311.219 383.915 307.446L380.25 316.75ZM419 323.25V333.25C434.615 333.25 448.411 331.694 460.207 328.377L457.5 318.75L454.793 309.123C445.255 311.806 433.385 313.25 419 313.25V323.25ZM457.5 318.75L460.169 328.387C466.79 326.554 472.814 323.468 477.201 318.474C481.732 313.316 483.75 306.99 483.75 300.25H473.75H463.75C463.75 302.843 463.06 304.268 462.174 305.276C461.144 306.448 459.044 307.946 454.831 309.113L457.5 318.75ZM473.75 300.25H483.75C483.75 291.932 480.36 284.743 474.032 279.375C468.095 274.337 460.05 271.28 450.98 269.448L449 279.25L447.02 289.052C454.45 290.553 458.78 292.663 461.093 294.625C463.015 296.257 463.75 297.902 463.75 300.25H473.75ZM449 279.25L451 269.452C434.435 266.071 412.003 262.21 383.771 257.866L382.25 267.75L380.729 277.634C408.831 281.957 430.898 285.762 447 289.048L449 279.25ZM382.25 267.75L384.106 257.924C332.97 248.263 300.04 237.292 283.45 225.783L277.75 234L272.05 242.217C292.46 256.375 329.197 267.904 380.394 277.576L382.25 267.75ZM277.75 234L283.485 225.808C268.657 215.429 260.25 197.823 260.25 170.25H250.25H240.25C240.25 202.01 250.176 226.905 272.015 242.192L277.75 234ZM250.25 170.25H260.25C260.25 142.216 270.502 118.276 291.466 97.925L284.5 90.75L277.534 83.575C252.831 107.557 240.25 136.617 240.25 170.25H250.25ZM284.5 90.75L291.492 97.8989C301.21 88.3936 316.182 80.6514 337.376 75.3232C358.522 70.0069 385.245 67.25 417.75 67.25V57.25V47.25C384.256 47.25 355.77 50.0764 332.499 55.9268C309.276 61.7652 290.623 70.773 277.508 83.6011L284.5 90.75ZM417.75 57.25V67.25C483.039 67.25 523.604 79.2712 543.554 99.9442L550.75 93L557.946 86.0558C531.896 59.0622 483.794 47.25 417.75 47.25V57.25ZM550.75 93L543.604 99.9952C564.98 121.833 575.5 147.42 575.5 177.25H585.5H595.5C595.5 142.08 582.853 111.501 557.896 86.0048L550.75 93ZM585.5 177.25V167.25H471.25V177.25V187.25H585.5V177.25ZM471.25 177.25H481.25C481.25 155.891 475.291 137.589 457.821 130.909L454.25 140.25L450.679 149.591C455.876 151.578 461.25 157.942 461.25 177.25H471.25ZM454.25 140.25L457.821 130.909C445.2 126.084 431.385 123.75 416.5 123.75V133.75V143.75C429.282 143.75 440.634 145.75 450.679 149.591L454.25 140.25ZM416.5 133.75V123.75C399.999 123.75 385.556 125.565 373.426 129.484L376.5 139L379.574 148.516C389.111 145.435 401.335 143.75 416.5 143.75V133.75ZM376.5 139L373.382 129.498C367.006 131.591 361.243 134.737 357.026 139.481C352.631 144.426 350.5 150.458 350.5 157H360.5H370.5C370.5 155.042 371.036 153.824 371.974 152.769C373.09 151.513 375.327 149.909 379.618 148.502L376.5 139ZM360.5 157H350.5C350.5 165.714 353.68 173.441 360.177 179.301C366.326 184.846 374.715 188.07 384.169 189.831L386 180L387.831 170.169C380.285 168.763 375.924 166.57 373.573 164.449C371.57 162.643 370.5 160.453 370.5 157H360.5ZM386 180L384.262 189.848C401.297 192.854 423.658 196.692 451.337 201.361L453 191.5L454.663 181.639C427.008 176.975 404.703 173.146 387.738 170.152L386 180ZM453 191.5L451.211 201.339C477.577 206.132 499.328 211.137 516.554 216.325C533.915 221.554 546.104 226.803 553.739 231.845L559.25 223.5L564.761 215.155C554.729 208.531 540.377 202.613 522.321 197.175C504.131 191.696 481.59 186.534 454.789 181.661L453 191.5ZM559.25 223.5L553.831 231.904C567.834 240.934 576 257.214 576 284H586H596C596 253.119 586.333 229.066 564.669 215.096L559.25 223.5ZM586 284H576C576 313.232 565.932 337.969 545.601 358.758L552.75 365.75L559.9 372.742C583.902 348.198 596 318.435 596 284H586ZM552.75 365.75L545.601 358.758C536.242 368.328 521.546 376.161 500.456 381.563C479.417 386.951 452.671 389.75 420 389.75V399.75V409.75C453.663 409.75 482.208 406.882 505.419 400.937C528.579 395.005 547.092 385.839 559.9 372.742L552.75 365.75Z" fill="#468BDB" mask="url(#path-4-inside-1_6_88)"/>
<path d="M640.922 62.25C710.022 62.25 752.873 77.0412 772.349 104.399L772.357 104.413L772.367 104.426C791.936 131.544 802.161 161.446 803.101 194.25H697.372C697.13 181.742 695.957 171.188 693.764 162.688C691.309 153.177 687.42 145.623 681.501 141.061H681.502C671.162 132.977 657.18 129.25 640.172 129.25C622.763 129.25 607.996 133.841 596.269 143.369C589.464 148.817 585.211 159.268 582.517 172.906C579.76 186.864 578.422 205.356 578.422 228.25C578.422 251.308 579.738 269.937 582.449 284.009C585.103 297.782 589.29 308.327 595.989 313.856L596.004 313.868L596.019 313.881C607.755 323.417 622.61 328 640.172 328C657.057 328 671.025 324.17 681.511 315.932C687.399 311.305 691.296 303.784 693.761 294.323C695.951 285.914 697.125 275.524 697.371 263.25H803.095C802.126 294.934 791.921 324.605 772.344 352.356C752.691 380.056 709.907 395 641.172 395C573.081 395 529.174 379.618 507.148 350.719C484.511 320.851 472.922 280.202 472.922 228.25C472.922 176.116 484.518 135.653 507.133 106.302L507.141 106.291C529.165 77.5496 572.996 62.25 640.922 62.25Z" stroke="#386FAE" stroke-width="10"/>
<defs>
<filter id="filter0_d_6_88" x="431.922" y="21.25" width="420.25" height="422.75" filterUnits="userSpaceOnUse" color-interpolation-filters="sRGB">
<feFlood flood-opacity="0" result="BackgroundImageFix"/>
<feColorMatrix in="SourceAlpha" type="matrix" values="0 0 0 0 0 0 0 0 0 0 0 0 0 0 0 0 0 0 127 0" result="hardAlpha"/>
<feOffset dx="4" dy="4"/>
<feGaussianBlur stdDeviation="20"/>
<feComposite in2="hardAlpha" operator="out"/>
<feColorMatrix type="matrix" values="0 0 0 0 0 0 0 0 0 0 0 0 0 0 0 0 0 0 0.25 0"/>
<feBlend mode="normal" in2="BackgroundImageFix" result="effect1_dropShadow_6_88"/>
<feBlend mode="normal" in="SourceGraphic" in2="effect1_dropShadow_6_88" result="shape"/>
</filter>
<filter id="filter1_d_6_88" x="213.77" y="21.25" width="416" height="422.5" filterUnits="userSpaceOnUse" color-interpolation-filters="sRGB">
<feFlood flood-opacity="0" result="BackgroundImageFix"/>
<feColorMatrix in="SourceAlpha" type="matrix" values="0 0 0 0 0 0 0 0 0 0 0 0 0 0 0 0 0 0 127 0" result="hardAlpha"/>
<feOffset dx="4" dy="4"/>
<feGaussianBlur stdDeviation="20"/>
<feComposite in2="hardAlpha" operator="out"/>
<feColorMatrix type="matrix" values="0 0 0 0 0 0 0 0 0 0 0 0 0 0 0 0 0 0 0.25 0"/>
<feBlend mode="normal" in2="BackgroundImageFix" result="effect1_dropShadow_6_88"/>
<feBlend mode="normal" in="SourceGraphic" in2="effect1_dropShadow_6_88" result="shape"/>
</filter>
<filter id="filter2_d_6_88" x="0" y="24.5" width="407.25" height="420.25" filterUnits="userSpaceOnUse" color-interpolation-filters="sRGB">
<feFlood flood-opacity="0" result="BackgroundImageFix"/>
<feColorMatrix in="SourceAlpha" type="matrix" values="0 0 0 0 0 0 0 0 0 0 0 0 0 0 0 0 0 0 127 0" result="hardAlpha"/>
<feOffset dx="4" dy="4"/>
<feGaussianBlur stdDeviation="20"/>
<feComposite in2="hardAlpha" operator="out"/>
<feColorMatrix type="matrix" values="0 0 0 0 0 0 0 0 0 0 0 0 0 0 0 0 0 0 0.25 0"/>
<feBlend mode="normal" in2="BackgroundImageFix" result="effect1_dropShadow_6_88"/>
<feBlend mode="normal" in="SourceGraphic" in2="effect1_dropShadow_6_88" result="shape"/>
</filter>
</defs>
</svg>
