<svg width="3122" height="518" viewBox="0 0 3122 518" fill="none" xmlns="http://www.w3.org/2000/svg">
<g filter="url(#filter0_d_44_113)">
<path d="M1827.75 400.25C1764.92 400.25 1721.17 386.5 1696.5 359C1672 331.5 1659.75 294.583 1659.75 248.25C1659.75 201.75 1672 165.083 1696.5 138.25C1721.17 111.417 1764.92 98 1827.75 98C1890.75 98 1934.5 111.417 1959 138.25C1983.5 165.083 1995.75 201.75 1995.75 248.25C1995.75 294.583 1983.5 331.5 1959 359C1934.5 386.5 1890.75 400.25 1827.75 400.25ZM1827.75 324.5C1844.08 324.5 1857.33 320.083 1867.5 311.25C1877.83 302.25 1883 281.417 1883 248.75C1883 216.083 1877.83 195.417 1867.5 186.75C1857.33 178.083 1844.08 173.75 1827.75 173.75C1811.58 173.75 1798.33 178.083 1788 186.75C1777.67 195.417 1772.5 216.083 1772.5 248.75C1772.5 281.417 1777.67 302.25 1788 311.25C1798.33 320.083 1811.58 324.5 1827.75 324.5ZM2157.04 401C2092.54 401 2048.21 387.333 2024.04 360C1999.54 332.5 1987.29 295.833 1987.29 250C1987.29 204.167 1999.46 167.417 2023.79 139.75C2047.96 112.083 2091.63 98.25 2154.79 98.25C2219.96 98.25 2264.21 112.417 2287.54 140.75C2310.54 169.25 2322.04 205.75 2322.04 250.25C2322.04 262.417 2321.29 273.333 2319.79 283H2086.79V215.75H2208.04C2205.54 199.583 2201.46 188.5 2195.79 182.5C2186.13 174.333 2172.54 170.25 2155.04 170.25C2137.88 170.25 2123.79 175.083 2112.79 184.75C2101.79 194.25 2096.29 216.083 2096.29 250.25C2096.29 285.083 2101.96 306.833 2113.29 315.5C2124.46 324.5 2139.04 329 2157.04 329V401ZM2157.04 329C2167.88 329 2176.29 328 2182.29 326C2188.46 324 2193.54 320.75 2197.54 316.25C2201.38 311.583 2205.38 305.667 2209.54 298.5L2310.29 327.5C2305.96 346.333 2296.79 360.667 2282.79 370.5C2268.79 380.667 2252.79 388.25 2234.79 393.25C2216.63 398.417 2190.71 401 2157.04 401V329ZM2328.11 398V5.49999H2441.11V398H2328.11ZM2452.13 398V5.49999H2565.13V398H2452.13ZM2653.63 398V251.5C2653.63 219.833 2650.54 199.417 2644.38 190.25C2638.38 180.917 2628.88 176.25 2615.88 176.25C2601.38 176.25 2588.96 182.833 2578.63 196C2568.29 209 2563.13 226.583 2563.13 248.75L2508.13 227.25C2508.13 199.417 2521.96 171.167 2549.63 142.5C2577.46 113.667 2613.96 99.25 2659.13 99.25C2700.46 99.25 2728.63 112.75 2743.63 139.75C2758.79 166.75 2766.38 202.083 2766.38 245.75V398H2653.63ZM2937.75 400.25C2874.92 400.25 2831.17 386.5 2806.5 359C2782 331.5 2769.75 294.583 2769.75 248.25C2769.75 201.75 2782 165.083 2806.5 138.25C2831.17 111.417 2874.92 98 2937.75 98C3000.75 98 3044.5 111.417 3069 138.25C3093.5 165.083 3105.75 201.75 3105.75 248.25C3105.75 294.583 3093.5 331.5 3069 359C3044.5 386.5 3000.75 400.25 2937.75 400.25ZM2937.75 324.5C2954.08 324.5 2967.33 320.083 2977.5 311.25C2987.83 302.25 2993 281.417 2993 248.75C2993 216.083 2987.83 195.417 2977.5 186.75C2967.33 178.083 2954.08 173.75 2937.75 173.75C2921.58 173.75 2908.33 178.083 2898 186.75C2887.67 195.417 2882.5 216.083 2882.5 248.75C2882.5 281.417 2887.67 302.25 2898 311.25C2908.33 320.083 2921.58 324.5 2937.75 324.5Z" fill="#EFF1F3"/>
</g>
<g filter="url(#filter1_d_44_113)">
<path d="M2996 323H3101.75V398H2996V323Z" fill="#51A2FF"/>
</g>
<mask id="path-3-inside-1_44_113" fill="white">
<path d="M2937.75 400.25C2874.92 400.25 2831.17 386.5 2806.5 359C2782 331.5 2769.75 294.583 2769.75 248.25C2769.75 201.75 2782 165.083 2806.5 138.25C2831.17 111.417 2874.92 98 2937.75 98C3000.75 98 3044.5 111.417 3069 138.25C3093.5 165.083 3105.75 201.75 3105.75 248.25C3105.75 294.583 3093.5 331.5 3069 359C3044.5 386.5 3000.75 400.25 2937.75 400.25ZM2937.75 324.5C2954.08 324.5 2967.33 320.083 2977.5 311.25C2987.83 302.25 2993 281.417 2993 248.75C2993 216.083 2987.83 195.417 2977.5 186.75C2967.33 178.083 2954.08 173.75 2937.75 173.75C2921.58 173.75 2908.33 178.083 2898 186.75C2887.67 195.417 2882.5 216.083 2882.5 248.75C2882.5 281.417 2887.67 302.25 2898 311.25C2908.33 320.083 2921.58 324.5 2937.75 324.5Z"/>
</mask>
<path d="M2806.5 359L2799.03 365.652L2799.04 365.665L2799.06 365.677L2806.5 359ZM2806.5 138.25L2799.14 131.482L2799.13 131.495L2799.12 131.507L2806.5 138.25ZM3069 138.25L3076.38 131.507V131.507L3069 138.25ZM3069 359L3076.47 365.652V365.652L3069 359ZM2977.5 311.25L2984.06 318.799L2984.07 318.791L2977.5 311.25ZM2977.5 186.75L2971.01 194.36L2971.04 194.386L2971.07 194.412L2977.5 186.75ZM2898 186.75L2891.57 179.088V179.088L2898 186.75ZM2898 311.25L2891.43 318.791L2891.47 318.821L2891.5 318.851L2898 311.25ZM2937.75 400.25V390.25C2875.86 390.25 2835.74 376.619 2813.94 352.323L2806.5 359L2799.06 365.677C2826.6 396.381 2873.97 410.25 2937.75 410.25V400.25ZM2806.5 359L2813.97 352.348C2791.49 327.116 2779.75 292.786 2779.75 248.25H2769.75H2759.75C2759.75 296.381 2772.51 335.884 2799.03 365.652L2806.5 359ZM2769.75 248.25H2779.75C2779.75 203.524 2791.5 169.512 2813.88 144.993L2806.5 138.25L2799.12 131.507C2772.5 160.654 2759.75 199.976 2759.75 248.25H2769.75ZM2806.5 138.25L2813.86 145.018C2835.64 121.322 2875.8 108 2937.75 108V98V88C2874.03 88 2826.69 101.511 2799.14 131.482L2806.5 138.25ZM2937.75 98V108C2999.88 108 3040.01 121.331 3061.62 144.993L3069 138.25L3076.38 131.507C3048.99 101.503 3001.62 88 2937.75 88V98ZM3069 138.25L3061.62 144.993C3084 169.512 3095.75 203.524 3095.75 248.25H3105.75H3115.75C3115.75 199.976 3103 160.654 3076.38 131.507L3069 138.25ZM3105.75 248.25H3095.75C3095.75 292.786 3084.01 327.116 3061.53 352.348L3069 359L3076.47 365.652C3102.99 335.884 3115.75 296.381 3115.75 248.25H3105.75ZM3069 359L3061.53 352.348C3039.92 376.611 2999.83 390.25 2937.75 390.25V400.25V410.25C3001.67 410.25 3049.08 396.389 3076.47 365.652L3069 359ZM2937.75 324.5V334.5C2955.96 334.5 2971.71 329.532 2984.06 318.799L2977.5 311.25L2970.94 303.701C2962.96 310.635 2952.21 314.5 2937.75 314.5V324.5ZM2977.5 311.25L2984.07 318.791C2991.43 312.375 2996.01 302.645 2998.83 291.282C3001.68 279.783 3003 265.52 3003 248.75H2993H2983C2983 264.647 2981.73 277.134 2979.42 286.468C2977.07 295.938 2973.9 301.125 2970.93 303.709L2977.5 311.25ZM2993 248.75H3003C3003 231.984 3001.68 217.753 2998.83 206.325C2996.01 195.044 2991.4 185.359 2983.93 179.088L2977.5 186.75L2971.07 194.412C2973.93 196.807 2977.08 201.789 2979.42 211.175C2981.73 220.413 2983 232.85 2983 248.75H2993ZM2977.5 186.75L2983.99 179.14C2971.63 168.608 2955.91 163.75 2937.75 163.75V173.75V183.75C2952.26 183.75 2963.03 187.559 2971.01 194.36L2977.5 186.75ZM2937.75 173.75V163.75C2919.72 163.75 2904.05 168.625 2891.57 179.088L2898 186.75L2904.43 194.412C2912.62 187.542 2923.45 183.75 2937.75 183.75V173.75ZM2898 186.75L2891.57 179.088C2884.1 185.359 2879.49 195.044 2876.67 206.325C2873.82 217.753 2872.5 231.984 2872.5 248.75H2882.5H2892.5C2892.5 232.85 2893.77 220.413 2896.08 211.175C2898.42 201.789 2901.57 196.807 2904.43 194.412L2898 186.75ZM2882.5 248.75H2872.5C2872.5 265.52 2873.82 279.783 2876.67 291.282C2879.49 302.645 2884.07 312.375 2891.43 318.791L2898 311.25L2904.57 303.709C2901.6 301.125 2898.43 295.938 2896.08 286.468C2893.77 277.134 2892.5 264.647 2892.5 248.75H2882.5ZM2898 311.25L2891.5 318.851C2903.98 329.514 2919.67 334.5 2937.75 334.5V324.5V314.5C2923.49 314.5 2912.69 310.652 2904.5 303.649L2898 311.25Z" fill="#EFF1F3" mask="url(#path-3-inside-1_44_113)"/>
<g filter="url(#filter2_d_44_113)">
<path d="M1275.5 399.75C1207.33 399.75 1161.92 388.333 1139.25 365.5C1116.75 342.5 1105.5 313.667 1105.5 279H1219.5C1219.5 299.667 1224.92 312.25 1235.75 316.75C1246.75 321.083 1259.67 323.25 1274.5 323.25C1289.5 323.25 1302.33 321.75 1313 318.75C1323.83 315.75 1329.25 309.583 1329.25 300.25C1329.25 289.583 1321 282.583 1304.5 279.25C1288.17 275.917 1265.92 272.083 1237.75 267.75C1186.58 258.083 1151.75 246.833 1133.25 234C1114.92 221.167 1105.75 199.917 1105.75 170.25C1105.75 139.417 1117.17 112.917 1140 90.75C1162.83 68.4167 1207.25 57.25 1273.25 57.25C1338.92 57.25 1383.25 69.1667 1406.25 93C1429.42 116.667 1441 144.75 1441 177.25H1326.75C1326.75 156.917 1321.08 144.583 1309.75 140.25C1298.42 135.917 1285.83 133.75 1272 133.75C1256.17 133.75 1242.83 135.5 1232 139C1221.33 142.5 1216 148.5 1216 157C1216 169.167 1224.5 176.833 1241.5 180C1258.5 183 1280.83 186.833 1308.5 191.5C1361.67 201.167 1397.08 211.833 1414.75 223.5C1432.58 235 1441.5 255.167 1441.5 284C1441.5 315.833 1430.42 343.083 1408.25 365.75C1386.08 388.417 1341.83 399.75 1275.5 399.75Z" fill="#468BDB"/>
<path d="M1606.9 400C1538.4 400 1492.4 384.583 1468.9 353.75C1445.4 322.75 1433.65 280.917 1433.65 228.25C1433.65 175.417 1445.4 133.75 1468.9 103.25C1492.4 72.5833 1538.32 57.25 1606.65 57.25C1675.99 57.25 1721.15 72 1742.15 101.5C1763.32 130.833 1773.9 163.417 1773.9 199.25H1658.15C1658.15 170.25 1653.49 152.167 1644.15 145C1634.99 137.833 1622.24 134.25 1605.9 134.25C1589.4 134.25 1575.82 138.583 1565.15 147.25C1554.49 155.75 1549.15 182.75 1549.15 228.25C1549.15 274.083 1554.4 301.333 1564.9 310C1575.57 318.667 1589.24 323 1605.9 323C1622.07 323 1634.82 319.333 1644.15 312C1653.49 304.667 1658.15 286.75 1658.15 258.25H1773.9C1773.9 292.917 1763.32 325.25 1742.15 355.25C1720.99 385.083 1675.9 400 1606.9 400Z" fill="#386FAE"/>
</g>
<mask id="path-6-inside-2_44_113" fill="white">
<path d="M1827.75 400.25C1764.92 400.25 1721.17 386.5 1696.5 359C1672 331.5 1659.75 294.583 1659.75 248.25C1659.75 201.75 1672 165.083 1696.5 138.25C1721.17 111.417 1764.92 98 1827.75 98C1890.75 98 1934.5 111.417 1959 138.25C1983.5 165.083 1995.75 201.75 1995.75 248.25C1995.75 294.583 1983.5 331.5 1959 359C1934.5 386.5 1890.75 400.25 1827.75 400.25ZM1827.75 324.5C1844.08 324.5 1857.33 320.083 1867.5 311.25C1877.83 302.25 1883 281.417 1883 248.75C1883 216.083 1877.83 195.417 1867.5 186.75C1857.33 178.083 1844.08 173.75 1827.75 173.75C1811.58 173.75 1798.33 178.083 1788 186.75C1777.67 195.417 1772.5 216.083 1772.5 248.75C1772.5 281.417 1777.67 302.25 1788 311.25C1798.33 320.083 1811.58 324.5 1827.75 324.5Z"/>
</mask>
<path d="M1696.5 359L1689.03 365.652L1689.04 365.665L1689.06 365.677L1696.5 359ZM1696.5 138.25L1689.14 131.482L1689.13 131.495L1689.12 131.507L1696.5 138.25ZM1959 138.25L1966.38 131.507V131.507L1959 138.25ZM1959 359L1966.47 365.652V365.652L1959 359ZM1867.5 311.25L1874.06 318.799L1874.07 318.791L1867.5 311.25ZM1867.5 186.75L1861.01 194.36L1861.04 194.386L1861.07 194.412L1867.5 186.75ZM1788 186.75L1781.57 179.088V179.088L1788 186.75ZM1788 311.25L1781.43 318.791L1781.47 318.821L1781.5 318.851L1788 311.25ZM1827.75 400.25V390.25C1765.86 390.25 1725.74 376.619 1703.94 352.323L1696.5 359L1689.06 365.677C1716.6 396.381 1763.97 410.25 1827.75 410.25V400.25ZM1696.5 359L1703.97 352.348C1681.49 327.116 1669.75 292.786 1669.75 248.25H1659.75H1649.75C1649.75 296.381 1662.51 335.884 1689.03 365.652L1696.5 359ZM1659.75 248.25H1669.75C1669.75 203.524 1681.5 169.512 1703.88 144.993L1696.5 138.25L1689.12 131.507C1662.5 160.654 1649.75 199.976 1649.75 248.25H1659.75ZM1696.5 138.25L1703.86 145.018C1725.64 121.322 1765.8 108 1827.75 108V98V88C1764.03 88 1716.69 101.511 1689.14 131.482L1696.5 138.25ZM1827.75 98V108C1889.88 108 1930.01 121.331 1951.62 144.993L1959 138.25L1966.38 131.507C1938.99 101.503 1891.62 88 1827.75 88V98ZM1959 138.25L1951.62 144.993C1974 169.512 1985.75 203.524 1985.75 248.25H1995.75H2005.75C2005.75 199.976 1993 160.654 1966.38 131.507L1959 138.25ZM1995.75 248.25H1985.75C1985.75 292.786 1974.01 327.116 1951.53 352.348L1959 359L1966.47 365.652C1992.99 335.884 2005.75 296.381 2005.75 248.25H1995.75ZM1959 359L1951.53 352.348C1929.92 376.611 1889.83 390.25 1827.75 390.25V400.25V410.25C1891.67 410.25 1939.08 396.389 1966.47 365.652L1959 359ZM1827.75 324.5V334.5C1845.96 334.5 1861.71 329.532 1874.06 318.799L1867.5 311.25L1860.94 303.701C1852.96 310.635 1842.21 314.5 1827.75 314.5V324.5ZM1867.5 311.25L1874.07 318.791C1881.43 312.375 1886.01 302.645 1888.83 291.282C1891.68 279.783 1893 265.52 1893 248.75H1883H1873C1873 264.647 1871.73 277.134 1869.42 286.468C1867.07 295.938 1863.9 301.125 1860.93 303.709L1867.5 311.25ZM1883 248.75H1893C1893 231.984 1891.68 217.753 1888.83 206.325C1886.01 195.044 1881.4 185.359 1873.93 179.088L1867.5 186.75L1861.07 194.412C1863.93 196.807 1867.08 201.789 1869.42 211.175C1871.73 220.413 1873 232.85 1873 248.75H1883ZM1867.5 186.75L1873.99 179.14C1861.63 168.608 1845.91 163.75 1827.75 163.75V173.75V183.75C1842.26 183.75 1853.03 187.559 1861.01 194.36L1867.5 186.75ZM1827.75 173.75V163.75C1809.72 163.75 1794.05 168.625 1781.57 179.088L1788 186.75L1794.43 194.412C1802.62 187.542 1813.45 183.75 1827.75 183.75V173.75ZM1788 186.75L1781.57 179.088C1774.1 185.359 1769.49 195.044 1766.67 206.325C1763.82 217.753 1762.5 231.984 1762.5 248.75H1772.5H1782.5C1782.5 232.85 1783.77 220.413 1786.08 211.175C1788.42 201.789 1791.57 196.807 1794.43 194.412L1788 186.75ZM1772.5 248.75H1762.5C1762.5 265.52 1763.82 279.783 1766.67 291.282C1769.49 302.645 1774.07 312.375 1781.43 318.791L1788 311.25L1794.57 303.709C1791.6 301.125 1788.43 295.938 1786.08 286.468C1783.77 277.134 1782.5 264.647 1782.5 248.75H1772.5ZM1788 311.25L1781.5 318.851C1793.98 329.514 1809.67 334.5 1827.75 334.5V324.5V314.5C1813.49 314.5 1802.69 310.652 1794.5 303.649L1788 311.25Z" fill="#EFF1F3" mask="url(#path-6-inside-2_44_113)"/>
<g filter="url(#filter3_d_44_113)">
<path d="M394.75 400.25C331.917 400.25 288.167 386.5 263.5 359C239 331.5 226.75 294.583 226.75 248.25C226.75 201.75 239 165.083 263.5 138.25C288.167 111.417 331.917 98 394.75 98C457.75 98 501.5 111.417 526 138.25C550.5 165.083 562.75 201.75 562.75 248.25C562.75 294.583 550.5 331.5 526 359C501.5 386.5 457.75 400.25 394.75 400.25ZM394.75 324.5C411.083 324.5 424.333 320.083 434.5 311.25C444.833 302.25 450 281.417 450 248.75C450 216.083 444.833 195.417 434.5 186.75C424.333 178.083 411.083 173.75 394.75 173.75C378.583 173.75 365.333 178.083 355 186.75C344.667 195.417 339.5 216.083 339.5 248.75C339.5 281.417 344.667 302.25 355 311.25C365.333 320.083 378.583 324.5 394.75 324.5ZM680.043 401.5C659.71 401.5 641.793 399.917 626.293 396.75C610.96 393.583 597.96 388.417 587.293 381.25C576.626 373.917 568.626 364.25 563.293 352.25C557.96 340.083 555.293 325.167 555.293 307.5C555.293 291 557.793 277 562.793 265.5C567.793 254 575.376 244.667 585.543 237.5C595.876 230.333 608.876 225.083 624.543 221.75C640.21 218.417 658.626 216.75 679.793 216.75H770.543V210C770.543 200.5 768.543 193.167 764.543 188C760.71 182.667 755.126 178.917 747.793 176.75C740.46 174.583 731.626 173.5 721.293 173.5C714.126 173.5 707.043 174.417 700.043 176.25C693.043 178.083 686.793 181.417 681.293 186.25C675.96 190.917 671.96 197.583 669.293 206.25L559.043 175C563.21 160.667 570.46 148.583 580.793 138.75C591.293 128.917 603.876 121.083 618.543 115.25C633.21 109.417 649.293 105.167 666.793 102.5C684.293 99.8333 702.293 98.5 720.793 98.5C756.626 98.5 786.626 102.333 810.793 110C834.96 117.667 853.21 130.083 865.543 147.25C877.876 164.417 884.043 187.417 884.043 216.25V398H790.293L780.293 367.25C777.126 371.917 772.293 376.333 765.793 380.5C759.293 384.5 751.543 388.083 742.543 391.25C733.71 394.417 723.96 396.917 713.293 398.75C702.626 400.583 691.543 401.5 680.043 401.5ZM705.793 330C714.126 330 722.46 329.167 730.793 327.5C739.126 325.667 746.626 323.167 753.293 320C760.126 316.667 765.293 313 768.793 309V277H706.793C700.46 277 694.876 277.333 690.043 278C685.376 278.667 681.543 279.917 678.543 281.75C675.543 283.417 673.293 286 671.793 289.5C670.293 293 669.543 297.583 669.543 303.25C669.543 308.75 670.293 313.25 671.793 316.75C673.46 320.083 675.876 322.75 679.043 324.75C682.21 326.583 686.043 327.917 690.543 328.75C695.043 329.583 700.126 330 705.793 330ZM759.543 88.75C751.043 88.75 743.71 87.5833 737.543 85.25C731.376 82.75 725.793 80 720.793 77C715.793 73.8333 711.043 71.0833 706.543 68.75C702.043 66.25 697.376 65 692.543 65C687.376 65 683.376 66.1667 680.543 68.5C677.71 70.8333 675.793 73.6667 674.793 77C673.793 80.3333 673.293 83.25 673.293 85.75H619.543C619.71 82.25 620.126 77.9166 620.793 72.75C621.626 67.4166 623.21 61.8333 625.543 56C628.043 50.1666 631.626 44.75 636.293 39.75C641.126 34.75 647.543 30.6666 655.543 27.5C663.543 24.3333 673.46 22.75 685.293 22.75C693.793 22.75 701.043 23.9166 707.043 26.25C713.21 28.4166 718.71 31.0833 723.543 34.25C728.376 37.25 732.96 39.9167 737.293 42.25C741.626 44.4166 746.21 45.5 751.043 45.5C755.543 45.5 759.21 44.3333 762.043 42C765.043 39.6667 767.126 36.8333 768.293 33.5C769.626 30.1667 770.293 27.25 770.293 24.75H823.543C823.71 28.25 823.293 32.75 822.293 38.25C821.46 43.5833 819.793 49.1666 817.293 55C814.793 60.6666 811.21 66.0833 806.543 71.25C801.876 76.4167 795.71 80.6667 788.043 84C780.543 87.1666 771.043 88.75 759.543 88.75ZM1051.8 400.25C988.967 400.25 945.217 386.5 920.551 359C896.051 331.5 883.801 294.583 883.801 248.25C883.801 201.75 896.051 165.083 920.551 138.25C945.217 111.417 988.967 98 1051.8 98C1114.8 98 1158.55 111.417 1183.05 138.25C1207.55 165.083 1219.8 201.75 1219.8 248.25C1219.8 294.583 1207.55 331.5 1183.05 359C1158.55 386.5 1114.8 400.25 1051.8 400.25ZM1051.8 324.5C1068.13 324.5 1081.38 320.083 1091.55 311.25C1101.88 302.25 1107.05 281.417 1107.05 248.75C1107.05 216.083 1101.88 195.417 1091.55 186.75C1081.38 178.083 1068.13 173.75 1051.8 173.75C1035.63 173.75 1022.38 178.083 1012.05 186.75C1001.72 195.417 996.551 216.083 996.551 248.75C996.551 281.417 1001.72 302.25 1012.05 311.25C1022.38 320.083 1035.63 324.5 1051.8 324.5Z" fill="#EFF1F3"/>
</g>
<g filter="url(#filter4_d_44_113)">
<mask id="path-9-inside-3_44_113" fill="white">
<path d="M1275.5 399.75C1207.33 399.75 1161.92 388.333 1139.25 365.5C1116.75 342.5 1105.5 313.667 1105.5 279H1219.5C1219.5 299.667 1224.92 312.25 1235.75 316.75C1246.75 321.083 1259.67 323.25 1274.5 323.25C1289.5 323.25 1302.33 321.75 1313 318.75C1323.83 315.75 1329.25 309.583 1329.25 300.25C1329.25 289.583 1321 282.583 1304.5 279.25C1288.17 275.917 1265.92 272.083 1237.75 267.75C1186.58 258.083 1151.75 246.833 1133.25 234C1114.92 221.167 1105.75 199.917 1105.75 170.25C1105.75 139.417 1117.17 112.917 1140 90.75C1162.83 68.4167 1207.25 57.25 1273.25 57.25C1338.92 57.25 1383.25 69.1667 1406.25 93C1429.42 116.667 1441 144.75 1441 177.25H1326.75C1326.75 156.917 1321.08 144.583 1309.75 140.25C1298.42 135.917 1285.83 133.75 1272 133.75C1256.17 133.75 1242.83 135.5 1232 139C1221.33 142.5 1216 148.5 1216 157C1216 169.167 1224.5 176.833 1241.5 180C1258.5 183 1280.83 186.833 1308.5 191.5C1361.67 201.167 1397.08 211.833 1414.75 223.5C1432.58 235 1441.5 255.167 1441.5 284C1441.5 315.833 1430.42 343.083 1408.25 365.75C1386.08 388.417 1341.83 399.75 1275.5 399.75Z"/>
</mask>
<path d="M1139.25 365.5L1132.1 372.493L1132.13 372.519L1132.15 372.545L1139.25 365.5ZM1105.5 279V269H1095.5V279H1105.5ZM1219.5 279H1229.5V269H1219.5V279ZM1235.75 316.75L1231.91 325.985L1232 326.02L1232.08 326.054L1235.75 316.75ZM1313 318.75L1310.33 309.113L1310.31 309.118L1310.29 309.123L1313 318.75ZM1304.5 279.25L1302.5 289.048L1302.51 289.05L1302.52 289.052L1304.5 279.25ZM1237.75 267.75L1235.89 277.576L1236.06 277.608L1236.23 277.634L1237.75 267.75ZM1133.25 234L1127.52 242.192L1127.53 242.204L1127.55 242.217L1133.25 234ZM1140 90.75L1146.97 97.925L1146.98 97.912L1146.99 97.8989L1140 90.75ZM1406.25 93L1399.05 99.9442L1399.08 99.9698L1399.1 99.9952L1406.25 93ZM1441 177.25V187.25H1451V177.25H1441ZM1326.75 177.25H1316.75V187.25H1326.75V177.25ZM1232 139L1228.93 129.484L1228.9 129.491L1228.88 129.498L1232 139ZM1241.5 180L1239.67 189.831L1239.72 189.84L1239.76 189.848L1241.5 180ZM1308.5 191.5L1310.29 181.661L1310.23 181.65L1310.16 181.639L1308.5 191.5ZM1414.75 223.5L1409.24 231.845L1409.28 231.875L1409.33 231.904L1414.75 223.5ZM1408.25 365.75L1401.1 358.758L1408.25 365.75ZM1275.5 399.75V389.75C1241.9 389.75 1214.39 386.929 1192.75 381.489C1171.05 376.035 1155.94 368.12 1146.35 358.455L1139.25 365.5L1132.15 372.545C1145.23 385.713 1164.16 394.924 1187.87 400.886C1211.65 406.863 1240.93 409.75 1275.5 409.75V399.75ZM1139.25 365.5L1146.4 358.507C1125.88 337.529 1115.5 311.275 1115.5 279H1105.5H1095.5C1095.5 316.058 1107.62 347.471 1132.1 372.493L1139.25 365.5ZM1105.5 279V289H1219.5V279V269H1105.5V279ZM1219.5 279H1209.5C1209.5 300.408 1215.03 318.974 1231.91 325.985L1235.75 316.75L1239.59 307.515C1234.8 305.526 1229.5 298.925 1229.5 279H1219.5ZM1235.75 316.75L1232.08 326.054C1244.51 330.948 1258.72 333.25 1274.5 333.25V323.25V313.25C1260.61 313.25 1248.99 311.219 1239.42 307.446L1235.75 316.75ZM1274.5 323.25V333.25C1290.12 333.25 1303.91 331.694 1315.71 328.377L1313 318.75L1310.29 309.123C1300.76 311.806 1288.88 313.25 1274.5 313.25V323.25ZM1313 318.75L1315.67 328.387C1322.29 326.554 1328.31 323.468 1332.7 318.474C1337.23 313.316 1339.25 306.99 1339.25 300.25H1329.25H1319.25C1319.25 302.843 1318.56 304.268 1317.67 305.276C1316.64 306.448 1314.54 307.946 1310.33 309.113L1313 318.75ZM1329.25 300.25H1339.25C1339.25 291.932 1335.86 284.743 1329.53 279.375C1323.6 274.337 1315.55 271.28 1306.48 269.448L1304.5 279.25L1302.52 289.052C1309.95 290.553 1314.28 292.663 1316.59 294.625C1318.52 296.257 1319.25 297.902 1319.25 300.25H1329.25ZM1304.5 279.25L1306.5 269.452C1289.93 266.071 1267.5 262.21 1239.27 257.866L1237.75 267.75L1236.23 277.634C1264.33 281.957 1286.4 285.762 1302.5 289.048L1304.5 279.25ZM1237.75 267.75L1239.61 257.924C1188.47 248.263 1155.54 237.292 1138.95 225.783L1133.25 234L1127.55 242.217C1147.96 256.375 1184.7 267.904 1235.89 277.576L1237.75 267.75ZM1133.25 234L1138.98 225.808C1124.16 215.429 1115.75 197.823 1115.75 170.25H1105.75H1095.75C1095.75 202.01 1105.68 226.905 1127.52 242.192L1133.25 234ZM1105.75 170.25H1115.75C1115.75 142.216 1126 118.276 1146.97 97.925L1140 90.75L1133.03 83.575C1108.33 107.557 1095.75 136.617 1095.75 170.25H1105.75ZM1140 90.75L1146.99 97.8989C1156.71 88.3936 1171.68 80.6514 1192.88 75.3232C1214.02 70.0069 1240.74 67.25 1273.25 67.25V57.25V47.25C1239.76 47.25 1211.27 50.0764 1188 55.9268C1164.78 61.7652 1146.12 70.773 1133.01 83.6011L1140 90.75ZM1273.25 57.25V67.25C1338.54 67.25 1379.1 79.2712 1399.05 99.9442L1406.25 93L1413.45 86.0558C1387.4 59.0622 1339.29 47.25 1273.25 47.25V57.25ZM1406.25 93L1399.1 99.9952C1420.48 121.833 1431 147.42 1431 177.25H1441H1451C1451 142.08 1438.35 111.501 1413.4 86.0048L1406.25 93ZM1441 177.25V167.25H1326.75V177.25V187.25H1441V177.25ZM1326.75 177.25H1336.75C1336.75 155.891 1330.79 137.589 1313.32 130.909L1309.75 140.25L1306.18 149.591C1311.38 151.578 1316.75 157.942 1316.75 177.25H1326.75ZM1309.75 140.25L1313.32 130.909C1300.7 126.084 1286.88 123.75 1272 123.75V133.75V143.75C1284.78 143.75 1296.13 145.75 1306.18 149.591L1309.75 140.25ZM1272 133.75V123.75C1255.5 123.75 1241.06 125.565 1228.93 129.484L1232 139L1235.07 148.516C1244.61 145.435 1256.83 143.75 1272 143.75V133.75ZM1232 139L1228.88 129.498C1222.51 131.591 1216.74 134.737 1212.53 139.481C1208.13 144.426 1206 150.458 1206 157H1216H1226C1226 155.042 1226.54 153.824 1227.47 152.769C1228.59 151.513 1230.83 149.909 1235.12 148.502L1232 139ZM1216 157H1206C1206 165.714 1209.18 173.441 1215.68 179.301C1221.83 184.846 1230.22 188.07 1239.67 189.831L1241.5 180L1243.33 170.169C1235.78 168.763 1231.42 166.57 1229.07 164.449C1227.07 162.643 1226 160.453 1226 157H1216ZM1241.5 180L1239.76 189.848C1256.8 192.854 1279.16 196.692 1306.84 201.361L1308.5 191.5L1310.16 181.639C1282.51 176.975 1260.2 173.146 1243.24 170.152L1241.5 180ZM1308.5 191.5L1306.71 201.339C1333.08 206.132 1354.83 211.137 1372.05 216.325C1389.42 221.554 1401.6 226.803 1409.24 231.845L1414.75 223.5L1420.26 215.155C1410.23 208.531 1395.88 202.613 1377.82 197.175C1359.63 191.696 1337.09 186.534 1310.29 181.661L1308.5 191.5ZM1414.75 223.5L1409.33 231.904C1423.33 240.934 1431.5 257.214 1431.5 284H1441.5H1451.5C1451.5 253.119 1441.83 229.066 1420.17 215.096L1414.75 223.5ZM1441.5 284H1431.5C1431.5 313.232 1421.43 337.969 1401.1 358.758L1408.25 365.75L1415.4 372.742C1439.4 348.198 1451.5 318.435 1451.5 284H1441.5ZM1408.25 365.75L1401.1 358.758C1391.74 368.328 1377.05 376.161 1355.96 381.563C1334.92 386.951 1308.17 389.75 1275.5 389.75V399.75V409.75C1309.16 409.75 1337.71 406.882 1360.92 400.937C1384.08 395.005 1402.59 385.839 1415.4 372.742L1408.25 365.75Z" fill="#468BDB" mask="url(#path-9-inside-3_44_113)"/>
</g>
<g filter="url(#filter5_d_44_113)">
<path d="M176 400.75C122 400.75 81.25 392 53.75 374.5C26.25 356.833 12.5 329.75 12.5 293.25V246.75H126.5V280.25C126.5 294.583 129.75 305.583 136.25 313.25C142.917 320.917 156.083 324.75 175.75 324.75C195.25 324.75 208.5 321.333 215.5 314.5C222.5 307.5 226 297.083 226 283.25V60.5H339.75V299.75C339.75 332.583 326.083 357.667 298.75 375C271.583 392.167 230.667 400.75 176 400.75Z" fill="#51A2FF"/>
</g>
<mask id="path-12-inside-4_44_113" fill="white">
<path d="M394.75 400.25C331.917 400.25 288.167 386.5 263.5 359C239 331.5 226.75 294.583 226.75 248.25C226.75 201.75 239 165.083 263.5 138.25C288.167 111.417 331.917 98 394.75 98C457.75 98 501.5 111.417 526 138.25C550.5 165.083 562.75 201.75 562.75 248.25C562.75 294.583 550.5 331.5 526 359C501.5 386.5 457.75 400.25 394.75 400.25ZM394.75 324.5C411.083 324.5 424.333 320.083 434.5 311.25C444.833 302.25 450 281.417 450 248.75C450 216.083 444.833 195.417 434.5 186.75C424.333 178.083 411.083 173.75 394.75 173.75C378.583 173.75 365.333 178.083 355 186.75C344.667 195.417 339.5 216.083 339.5 248.75C339.5 281.417 344.667 302.25 355 311.25C365.333 320.083 378.583 324.5 394.75 324.5Z"/>
</mask>
<path d="M263.5 359L256.033 365.652L256.045 365.665L256.056 365.677L263.5 359ZM263.5 138.25L256.138 131.482L256.127 131.495L256.115 131.507L263.5 138.25ZM526 138.25L533.385 131.507V131.507L526 138.25ZM526 359L533.467 365.652V365.652L526 359ZM434.5 311.25L441.059 318.799L441.068 318.791L434.5 311.25ZM434.5 186.75L428.013 194.36L428.043 194.386L428.074 194.412L434.5 186.75ZM355 186.75L348.574 179.088V179.088L355 186.75ZM355 311.25L348.432 318.791L348.467 318.821L348.502 318.851L355 311.25ZM394.75 400.25V390.25C332.86 390.25 292.737 376.619 270.944 352.323L263.5 359L256.056 365.677C283.596 396.381 330.973 410.25 394.75 410.25V400.25ZM263.5 359L270.967 352.348C248.487 327.116 236.75 292.786 236.75 248.25H226.75H216.75C216.75 296.381 229.513 335.884 256.033 365.652L263.5 359ZM226.75 248.25H236.75C236.75 203.524 248.498 169.512 270.885 144.993L263.5 138.25L256.115 131.507C229.502 160.654 216.75 199.976 216.75 248.25H226.75ZM263.5 138.25L270.862 145.018C292.644 121.322 332.804 108 394.75 108V98V88C331.03 88 283.689 101.511 256.138 131.482L263.5 138.25ZM394.75 98V108C456.883 108 497.011 121.331 518.615 144.993L526 138.25L533.385 131.507C505.989 101.503 458.617 88 394.75 88V98ZM526 138.25L518.615 144.993C541.003 169.512 552.75 203.524 552.75 248.25H562.75H572.75C572.75 199.976 559.998 160.654 533.385 131.507L526 138.25ZM562.75 248.25H552.75C552.75 292.786 541.013 327.116 518.533 352.348L526 359L533.467 365.652C559.987 335.884 572.75 296.381 572.75 248.25H562.75ZM526 359L518.533 352.348C496.917 376.611 456.826 390.25 394.75 390.25V400.25V410.25C458.674 410.25 506.083 396.389 533.467 365.652L526 359ZM394.75 324.5V334.5C412.958 334.5 428.705 329.532 441.059 318.799L434.5 311.25L427.941 303.701C419.961 310.635 409.209 314.5 394.75 314.5V324.5ZM434.5 311.25L441.068 318.791C448.434 312.375 453.013 302.645 455.831 291.282C458.683 279.783 460 265.52 460 248.75H450H440C440 264.647 438.734 277.134 436.419 286.468C434.07 295.938 430.899 301.125 427.932 303.709L434.5 311.25ZM450 248.75H460C460 231.984 458.684 217.753 455.826 206.325C453.006 195.044 448.404 185.359 440.926 179.088L434.5 186.75L428.074 194.412C430.93 196.807 434.077 201.789 436.424 211.175C438.733 220.413 440 232.85 440 248.75H450ZM434.5 186.75L440.987 179.14C428.632 168.608 412.911 163.75 394.75 163.75V173.75V183.75C409.256 183.75 420.034 187.559 428.013 194.36L434.5 186.75ZM394.75 173.75V163.75C376.72 163.75 361.049 168.625 348.574 179.088L355 186.75L361.426 194.412C369.618 187.542 380.446 183.75 394.75 183.75V173.75ZM355 186.75L348.574 179.088C341.096 185.359 336.494 195.044 333.674 206.325C330.816 217.753 329.5 231.984 329.5 248.75H339.5H349.5C349.5 232.85 350.767 220.413 353.076 211.175C355.423 201.789 358.57 196.807 361.426 194.412L355 186.75ZM339.5 248.75H329.5C329.5 265.52 330.817 279.783 333.669 291.282C336.487 302.645 341.066 312.375 348.432 318.791L355 311.25L361.568 303.709C358.601 301.125 355.43 295.938 353.081 286.468C350.766 277.134 349.5 264.647 349.5 248.75H339.5ZM355 311.25L348.502 318.851C360.976 329.514 376.674 334.5 394.75 334.5V324.5V314.5C380.493 314.5 369.69 310.652 361.498 303.649L355 311.25Z" fill="#EFF1F3" mask="url(#path-12-inside-4_44_113)"/>
<defs>
<filter id="filter0_d_44_113" x="1659.75" y="5.5" width="1454" height="403.5" filterUnits="userSpaceOnUse" color-interpolation-filters="sRGB">
<feFlood flood-opacity="0" result="BackgroundImageFix"/>
<feColorMatrix in="SourceAlpha" type="matrix" values="0 0 0 0 0 0 0 0 0 0 0 0 0 0 0 0 0 0 127 0" result="hardAlpha"/>
<feOffset dx="4" dy="4"/>
<feGaussianBlur stdDeviation="2"/>
<feComposite in2="hardAlpha" operator="out"/>
<feColorMatrix type="matrix" values="0 0 0 0 0 0 0 0 0 0 0 0 0 0 0 0 0 0 0.25 0"/>
<feBlend mode="normal" in2="BackgroundImageFix" result="effect1_dropShadow_44_113"/>
<feBlend mode="normal" in="SourceGraphic" in2="effect1_dropShadow_44_113" result="shape"/>
</filter>
<filter id="filter1_d_44_113" x="2996" y="323" width="113.75" height="83" filterUnits="userSpaceOnUse" color-interpolation-filters="sRGB">
<feFlood flood-opacity="0" result="BackgroundImageFix"/>
<feColorMatrix in="SourceAlpha" type="matrix" values="0 0 0 0 0 0 0 0 0 0 0 0 0 0 0 0 0 0 127 0" result="hardAlpha"/>
<feOffset dx="4" dy="4"/>
<feGaussianBlur stdDeviation="2"/>
<feComposite in2="hardAlpha" operator="out"/>
<feColorMatrix type="matrix" values="0 0 0 0 0 0 0 0 0 0 0 0 0 0 0 0 0 0 0.25 0"/>
<feBlend mode="normal" in2="BackgroundImageFix" result="effect1_dropShadow_44_113"/>
<feBlend mode="normal" in="SourceGraphic" in2="effect1_dropShadow_44_113" result="shape"/>
</filter>
<filter id="filter2_d_44_113" x="1105.5" y="57.25" width="676.402" height="350.75" filterUnits="userSpaceOnUse" color-interpolation-filters="sRGB">
<feFlood flood-opacity="0" result="BackgroundImageFix"/>
<feColorMatrix in="SourceAlpha" type="matrix" values="0 0 0 0 0 0 0 0 0 0 0 0 0 0 0 0 0 0 127 0" result="hardAlpha"/>
<feOffset dx="4" dy="4"/>
<feGaussianBlur stdDeviation="2"/>
<feComposite in2="hardAlpha" operator="out"/>
<feColorMatrix type="matrix" values="0 0 0 0 0 0 0 0 0 0 0 0 0 0 0 0 0 0 0.25 0"/>
<feBlend mode="normal" in2="BackgroundImageFix" result="effect1_dropShadow_44_113"/>
<feBlend mode="normal" in="SourceGraphic" in2="effect1_dropShadow_44_113" result="shape"/>
</filter>
<filter id="filter3_d_44_113" x="226.75" y="22.75" width="1001.05" height="386.75" filterUnits="userSpaceOnUse" color-interpolation-filters="sRGB">
<feFlood flood-opacity="0" result="BackgroundImageFix"/>
<feColorMatrix in="SourceAlpha" type="matrix" values="0 0 0 0 0 0 0 0 0 0 0 0 0 0 0 0 0 0 127 0" result="hardAlpha"/>
<feOffset dx="4" dy="4"/>
<feGaussianBlur stdDeviation="2"/>
<feComposite in2="hardAlpha" operator="out"/>
<feColorMatrix type="matrix" values="0 0 0 0 0 0 0 0 0 0 0 0 0 0 0 0 0 0 0.25 0"/>
<feBlend mode="normal" in2="BackgroundImageFix" result="effect1_dropShadow_44_113"/>
<feBlend mode="normal" in="SourceGraphic" in2="effect1_dropShadow_44_113" result="shape"/>
</filter>
<filter id="filter4_d_44_113" x="1105.5" y="57.25" width="344" height="350.5" filterUnits="userSpaceOnUse" color-interpolation-filters="sRGB">
<feFlood flood-opacity="0" result="BackgroundImageFix"/>
<feColorMatrix in="SourceAlpha" type="matrix" values="0 0 0 0 0 0 0 0 0 0 0 0 0 0 0 0 0 0 127 0" result="hardAlpha"/>
<feOffset dx="4" dy="4"/>
<feGaussianBlur stdDeviation="2"/>
<feComposite in2="hardAlpha" operator="out"/>
<feColorMatrix type="matrix" values="0 0 0 0 0 0 0 0 0 0 0 0 0 0 0 0 0 0 0.25 0"/>
<feBlend mode="normal" in2="BackgroundImageFix" result="effect1_dropShadow_44_113"/>
<feBlend mode="normal" in="SourceGraphic" in2="effect1_dropShadow_44_113" result="shape"/>
</filter>
<filter id="filter5_d_44_113" x="12.5" y="60.5" width="335.25" height="348.25" filterUnits="userSpaceOnUse" color-interpolation-filters="sRGB">
<feFlood flood-opacity="0" result="BackgroundImageFix"/>
<feColorMatrix in="SourceAlpha" type="matrix" values="0 0 0 0 0 0 0 0 0 0 0 0 0 0 0 0 0 0 127 0" result="hardAlpha"/>
<feOffset dx="4" dy="4"/>
<feGaussianBlur stdDeviation="2"/>
<feComposite in2="hardAlpha" operator="out"/>
<feColorMatrix type="matrix" values="0 0 0 0 0 0 0 0 0 0 0 0 0 0 0 0 0 0 0.25 0"/>
<feBlend mode="normal" in2="BackgroundImageFix" result="effect1_dropShadow_44_113"/>
<feBlend mode="normal" in="SourceGraphic" in2="effect1_dropShadow_44_113" result="shape"/>
</filter>
</defs>
</svg>
