<?xml version="1.0" encoding="UTF-8" standalone="no"?>
<svg
   xmlns:dc="http://purl.org/dc/elements/1.1/"
   xmlns:cc="http://creativecommons.org/ns#"
   xmlns:rdf="http://www.w3.org/1999/02/22-rdf-syntax-ns#"
   xmlns:svg="http://www.w3.org/2000/svg"
   xmlns="http://www.w3.org/2000/svg"
   viewBox="0 0 5000 3500"
   height="3500"
   width="5000"
   xml:space="preserve"
   id="svg2"
   version="1.1"><metadata
     id="metadata8"><rdf:RDF><cc:Work
         rdf:about=""><dc:format>image/svg+xml</dc:format><dc:type
           rdf:resource="http://purl.org/dc/dcmitype/StillImage" /></cc:Work></rdf:RDF></metadata><defs
     id="defs6"><linearGradient
       id="linearGradient22"
       spreadMethod="pad"
       gradientTransform="matrix(-42.8586,26828.6,-26828.6,-42.8586,18685.7,-332.145)"
       gradientUnits="userSpaceOnUse"
       y2="0"
       x2="1"
       y1="0"
       x1="0"><stop
         id="stop16"
         offset="0"
         style="stop-opacity:1;stop-color:#003557" /><stop
         id="stop18"
         offset="0.418125"
         style="stop-opacity:1;stop-color:#003557" /><stop
         id="stop20"
         offset="1"
         style="stop-opacity:1;stop-color:#003557" /></linearGradient></defs><g
     transform="matrix(1.3333333,0,0,-1.3333333,0,3500)"
     id="g10"><g
       transform="scale(0.1)"
       id="g12"><g
         transform="scale(2.30061)"
         id="g14"><path
           id="path24"
           style="fill:url(#linearGradient22);fill-opacity:1;fill-rule:nonzero;stroke:none"
           d="M 0,11410 H 16300 V -0.00169792 H 0 V 11410" /></g><g
         transform="scale(2.30061)"
         id="g26"><path
           id="path28"
           style="fill:#ffffff;fill-opacity:1;fill-rule:nonzero;stroke:none"
           d="m 14464.2,4284.71 c -95.9,-0.04 -186.1,-0.14 -269.2,-0.14 -1641,0 -3400.6,-149.02 -5104.25,-149.02 -1533.95,0 -3045.29,-37.26 -4582.64,-37.26 -1506.37,0 -3008.01,-1.08 -4508.11,11.07 V 0 h 16300 v 4253.38 c -601.8,30 -1304.3,31.56 -1835.8,31.33" /></g><g
         transform="scale(2.30061)"
         id="g30"><path
           id="path32"
           style="fill:#ffffff;fill-opacity:1;fill-rule:nonzero;stroke:none"
           d="m 7749.47,4816.19 c -242.49,37.84 78.97,-424.49 -281.94,-416.92 -308.91,6.48 -917.97,-57.95 -1478.32,-262.41 -309.47,-112.93 131.24,625.54 -213.59,538.09 -315.18,-79.94 214.39,-530.49 69.56,-571.45 -503.97,-142.51 -996.41,-227.19 -1261.19,-230.82 -455.07,0 -1078.01,517.85 -1663.62,464.12 -377.97,-34.68 57.45,636.23 -167.34,668.71 -376.33,54.37 102.52,-660.02 -164.73,-664.16 -205.56,-3.18 -403.07,-56.39 -606.5,-90.53 -290.77,-48.8 -66.08,665.42 -331.91,545.42 -197.4,-89.11 332.19,-543.62 126.09,-605.25 C 1190.05,4015.77 619.617,3714.72 0,3679.07 V 0 h 16300 v 4005.74 c -245.2,36.06 -545.3,5.65 -866.1,-50.05 -36.7,-6.38 -724.6,917.9 -855.2,513.41 -84.7,-262.2 1147.8,-327.29 574.1,-566.76 -403.7,-168.53 -853.1,-285.92 -1251.4,-287.14 -308.3,-0.95 241.7,398.13 91,484.53 -234.5,134.44 -205.2,-487.5 -230.5,-487.36 -263.3,1.43 -496.7,42.66 -668.5,128.59 -275,137.48 -579.2,151.25 -879.8,210.41 -159.5,31.4 282.7,650.41 -58.5,608.04 -283.4,-35.18 247.2,-566.78 -116.4,-605.41 -1036.2,-110.04 -2131.77,-490.31 -2633.61,-239.39 -136.35,68.18 -238.61,110.03 -320.33,120.95 -150.33,20.1 126.66,281.44 -35.81,287.13 -148.56,5.2 65.7,-276.4 -77.23,-277.34 -237.25,-1.57 -219.02,-252.41 -620.43,-51.7 -165.86,82.93 -303.96,520.8 -691.36,597.4 -27.82,5.5 322.62,353.77 89.54,425.14" /></g><g
         transform="scale(1.00988)"
         id="g34"><path
           id="path36"
           style="fill:#d2d2d2;fill-opacity:1;fill-rule:nonzero;stroke:none"
           d="M 6891.47,8618.02 C 5829.74,8617.34 4735.72,8497.59 3352.6,8497.59 2406.02,8497.59 1175.59,8110.98 0,7803.93 v -454.79 c 2336.4,-19.7 6017.69,234.9 7087.15,525.58 1581.82,429.94 3790.35,-484.44 5474.55,-484.44 582.3,0 2592.3,-585.36 3140.4,-138.42 597.9,487.54 -3175.2,-158.22 -5219.9,675.42 -1366.86,557.26 -2460.5,691.47 -3590.73,690.74" /></g><g
         transform="scale(1.22055)"
         id="g38"><path
           id="path40"
           style="fill:#d2d2d2;fill-opacity:1;fill-rule:nonzero;stroke:none"
           d="m 11297,7324.45 c 343.2,67.76 705.6,202.08 993.2,297.94 65.9,21.96 276.3,-46.47 322.7,0 38.2,38.16 1374.8,325.97 1440.1,260.7 117.4,-117.39 422.6,-211.31 595.9,-297.94 200,-100.03 401.6,-471.75 633.1,-471.75 214.4,0 399.1,-124.14 645.6,-124.14 69.9,0 372.4,5.47 372.4,-49.66 0,-47.28 -755.6,12.42 -856.6,12.42 -428.2,0 -841.6,228.36 -1179.3,397.26 -257.5,128.74 -1313.5,81.93 -1551.8,-37.25 -207.6,-103.79 -955,-124.14 -1204.2,-124.14 -39.1,0 -212.2,-60.89 -248.3,-24.83 -50.6,50.61 -31.7,178.62 37.2,161.39" /></g><g
         transform="scale(2.30061)"
         id="g42"><path
           id="path44"
           style="fill:#d2d2d2;fill-opacity:1;fill-rule:nonzero;stroke:none"
           d="m 15735.1,3759.55 c -79.3,-0.4 -153.2,-12.54 -218,-44.94 -132.3,-66.14 -283.3,-54.92 -434.7,-105.38 -1532.6,-510.85 -3239.4,307.7 -4794.8,-210.76 -194,-64.67 -1155.25,-61.98 -1251.34,-158.06 -199.63,-199.63 1043.04,-126.54 1106.44,-105.38 565.4,188.47 1300.4,144.89 1923.2,144.89 1364.1,0 2309,-166.99 3661.9,171.25 203.4,50.84 399,69.31 572.2,113.11 v 117.09 c -186.1,21.82 -388.6,79.07 -564.9,78.18" /></g><g
         transform="scale(2.30061)"
         id="g46"><path
           id="path48"
           style="fill:#eaeaea;fill-opacity:1;fill-rule:nonzero;stroke:none"
           d="M 3419.89,3469.33 C 2705.73,3467.68 1094.68,2929.97 0,2834.48 V 0 h 16300 v 3198.4 c -699.1,-53.71 -1424.8,-568.1 -2179.2,-379.51 -322.2,80.55 -585,133.53 -895.7,237.11 -763.5,254.5 -1757.8,-283.44 -2529.1,-26.35 -853.69,284.55 -2041.14,115.41 -2713.53,-52.69 -539.22,-134.81 -1461.95,-13.36 -1791.45,316.14 -204.88,204.88 -1035.85,-131.73 -1290.89,-131.73 -486.44,0 -831.59,73.32 -1211.86,263.45 -62.56,31.28 -153.96,44.78 -268.38,44.51" /></g><g
         transform="scale(2.30061)"
         id="g50"><path
           id="path52"
           style="fill:#fefefe;fill-opacity:1;fill-rule:nonzero;stroke:none"
           d="m 2317.23,3638.03 c -431.7,30.62 -106.05,-740.9 -156.4,-741.96 C 1579.93,2883.86 1030.57,2794.11 553.239,2555.44 400.092,2478.87 204.767,2483.32 0,2511.93 V 0 h 16300 v 2648.02 c -380.5,-107.06 -758.4,-315.58 -1046.4,-171.61 -327,163.5 -976.6,262.8 -1598,278.39 -62.8,1.58 -153.8,940.89 -503.9,793.86 -549.5,-230.77 702.5,-576.46 83.7,-796.63 -298.1,-106.08 -601.1,-51.02 -800.7,-117.56 -326,-108.67 -1205,180.8 -1664.2,137.91 -59.7,-5.58 -668.9,940.63 -877.51,486.41 -115.79,-252.14 974.41,-212.69 644.91,-571.62 -167.6,-167.61 -2038.13,-232.31 -2344.67,-79.04 -134.6,67.3 -468.26,4.87 -836.32,72.88 -521.53,96.37 329.84,564.35 91.81,730.97 -420.07,294.05 -207.82,-758.28 -500.86,-746.16 -447.63,18.52 -888.13,-57.69 -1099.32,-57.69 -1029.45,0 -2259.02,387.01 -3389.3,287.81 -591.04,-51.88 237.34,715.19 -142.01,742.09" /></g><g
         transform="scale(2.30061)"
         id="g54"><path
           id="path56"
           style="fill:#eaeaea;fill-opacity:1;fill-rule:nonzero;stroke:none"
           d="m 3200.9,2336.87 c -658.33,-1.56 -2016.36,-554 -2586.154,-269.1 -131.645,65.82 -315.643,-19.67 -409.831,74.52 C 163.722,2183.48 89.9166,2195.77 0,2196.24 V 0 h 16300 v 2199.7 c -614.2,92.68 -2544.8,-57.41 -2999.2,-57.41 -1146.5,0 -2300,-239.14 -3446.28,-111.78 -390.64,43.41 -2298.82,312.94 -2626.63,149.04 -261.46,-130.73 -3520.56,30.96 -3818.86,130.4 -56.99,18.99 -127.28,27.11 -208.13,26.92" /></g><g
         transform="scale(2.30061)"
         id="g58"><path
           id="path60"
           style="fill:#feffff;fill-opacity:1;fill-rule:nonzero;stroke:none"
           d="M 2687.21,2606.78 C 2175.52,2607.13 875.422,1878.58 421.515,1765.1 280.632,1729.88 140.435,1692.13 0,1655.1 V 0 h 16300 v 1807.38 c -474.6,0.19 -1016.8,-111.41 -1362.5,-42.28 -188.9,37.77 -608,162.57 -1090.5,287.46 -43.4,11.23 609.9,711.64 362.3,850.33 -609.6,341.53 -204.5,-892.89 -677.1,-771.48 -801.9,205.99 -1681.3,340.77 -1940.5,81.55 -73,-73 -194.1,-97.15 -284.1,-133.86 -34.2,-13.93 -948,248.96 -1034.8,28.62 -144.7,-367.59 888.3,-146.52 854.7,-188.4 -143.8,-179.55 -317.4,-439.66 -484.2,-523.05 -104.4,-52.19 -344,9.03 -447.9,26.35 -620.4,103.4 -948.93,149.66 -1475.27,500.55 -145.45,96.97 -230.41,275.26 -361.95,395.49 -33.76,30.85 923.94,393.76 618.8,612.2 -346.7,180 -398.49,-682.84 -916.52,-535.35 -481.45,137.08 -1808.74,-279.92 -1869.44,-340.61 -19.7,-19.71 -114.29,-107.38 -206.62,-181.73 -63.51,-51.14 -656.86,1394.3 -1214.72,655.7 -130.75,-328.72 1354.53,-389.55 846.65,-813.92 -720.64,-602.15 -2189.43,562.83 -2797.44,866.84 -34.25,17.12 -78.74,24.96 -131.68,24.99" /></g><g
         transform="scale(2.30061)"
         id="g62"><path
           id="path64"
           style="fill:#e2e2e2;fill-opacity:1;fill-rule:nonzero;stroke:none"
           d="m 2835.25,2147.5 c -43.85,-0.19 -92.7,-12.23 -148.08,-39.92 C 1898.97,1713.48 905.073,1656.85 0,1378.99 V 0 H 16300 V 1175.47 C 15589.3,1388.5 14336.2,1528 13804.7,1528 c -354.9,0 -985.3,245 -1370,52.69 -481.6,-240.8 -801.3,-116.39 -1159.1,-474.21 -22.1,-22.11 -211.3,0 -237.1,0 -403.5,0 -951.3,-45.39 -1343.62,52.69 -405.12,101.28 -2333.75,782.64 -2581.79,658.62 -202.64,-101.32 -1500.17,-633.76 -1580.68,-553.24 -67.43,67.42 -1482.29,283.33 -1738.76,368.82 -122.89,40.97 -334.38,22.3 -447.86,79.04 -183.14,91.57 -273.79,436.1 -510.54,435.09" /></g><g
         transform="scale(2.30061)"
         id="g66"><path
           id="path68"
           style="fill:#feffff;fill-opacity:1;fill-rule:nonzero;stroke:none"
           d="m 2188.2,1149.94 c -451.31,-0.54 -821.7,-18.26 -976.34,-69.8 C 977.628,1002.06 744.569,876.83 474.209,843.034 317.227,823.412 158.974,813.825 0,810.008 V 0 h 16300 v 1066.49 c -451.9,74.82 -2019.5,-65.39 -2337.3,-65.39 -470.5,0 -1267.4,148.32 -1712.4,0 C 11795.5,849.481 11061,764.754 10537.9,869.376 9721.77,1032.61 7025.46,1339.29 6296.4,974.759 c -371.02,-185.51 -1086,105.381 -1475.3,105.381 -445.35,0 -1708.78,70.91 -2632.9,69.8" /></g><path
         id="path70"
         style="fill:#d2d2d2;fill-opacity:1;fill-rule:nonzero;stroke:none"
         d="m 3889.29,10564.3 c -72.1,-31.8 -128.75,568 21.42,417.8 69.33,-69.3 128.58,-231.6 128.58,-353.5 0,-35.3 -9.38,-247.8 -21.43,-235.7 -74.07,74 -42.47,106.8 -128.57,171.4" /><g
         transform="scale(1.08813)"
         id="g72"><path
           id="path74"
           style="fill:#d2d2d2;fill-opacity:1;fill-rule:nonzero;stroke:none"
           d="m 16295.9,10161.8 c -13,-58.7 -51.1,-103.3 -17.4,-170.54 21.5,-43.1 14.9,-352.63 -41.8,-295.9 -9.5,9.46 1.9,43.32 -7,52.21 -92.1,92.16 -89.8,375.23 66.2,414.23" /></g><g
         transform="scale(1.7301)"
         id="g76"><path
           id="path78"
           style="fill:#d2d2d2;fill-opacity:1;fill-rule:nonzero;stroke:none"
           d="m 16175.8,6019.47 c 12.7,-70.57 61,-274.38 21.7,-352.99 -7.5,-14.92 -27.9,-46.11 -27.9,-61.93 0,-17.15 -13.6,-87.78 15.5,-80.51 95.5,23.88 58.6,197.68 92.9,266.29 13.8,27.66 -12.6,67.65 -3.1,95.99 7.1,21.45 25.1,73.59 12.4,99.09 -12.2,24.29 -61,84.09 -92.9,68.12 -4.4,-2.15 -14.2,-28.18 -18.6,-34.06" /></g><g
         transform="scale(1.96916)"
         id="g80"><path
           id="path82"
           style="fill:#dadada;fill-opacity:1;fill-rule:nonzero;stroke:none"
           d="m 16283.7,4790.84 c -19.4,-10.61 -31,-26.9 -46.3,-42.17 -4.9,-4.94 -6.4,-16.95 -9.5,-23.13 -14.3,-28.62 -23.9,-62.75 -38.1,-91.13 -15.5,-31.03 -6,-73.25 -21.7,-104.74 -2.7,-5.4 -6.5,-58.81 -23.2,-42.17 -37.6,37.64 39.6,255.84 70.8,287.01 5.5,5.52 42.9,19.05 48.9,19.05 15.5,0 35.4,9.44 35.4,6.8 0,-4.43 -12.7,-5.9 -16.3,-9.52" /></g><g
         transform="scale(2.13669)"
         id="g84"><path
           id="path86"
           style="fill:#dadada;fill-opacity:1;fill-rule:nonzero;stroke:none"
           d="m 15711.2,4793.84 c 60,-31.99 120.1,-63.69 184.4,-85.1 46.3,-15.46 90.4,-32.8 134.7,-54.96 16.2,-8.11 29.8,-27.66 47.9,-33.68 20.8,-6.95 44,-10.5 62,-19.5 32.3,-16.16 72.5,-38.85 97.5,-63.83 15.7,-15.64 31.1,-36.84 49.7,-46.09 3.3,-1.69 12.6,-7.09 8.8,-7.09 -15.6,0 -133.6,48.54 -145.4,60.27 -16.7,16.79 -65.2,20.22 -88.6,31.92 -31.3,15.64 -61.2,44.62 -97.5,56.73 -60.4,20.13 -115.1,44.24 -168.4,70.91 -26.2,13.08 -116,49.2 -85.1,90.42" /></g><path
         id="path88"
         style="fill:#dadada;fill-opacity:1;fill-rule:nonzero;stroke:none"
         d="M 5153.57,8335.71 C 4877.8,8012.47 4740.7,7586.47 4917.86,7232.14 c 3.18,-6.35 -21.43,196.86 -21.43,396.43 0,133.85 115.89,221.06 171.43,332.14 50.17,100.34 54.8,251.37 85.71,375" /><path
         id="path90"
         style="fill:#eaeaea;fill-opacity:1;fill-rule:nonzero;stroke:none"
         d="m 11197.5,5818.48 c 75,-86.98 287.1,-14.37 356.1,-83.34 61.9,-61.92 154.9,-144.57 234.9,-204.55 173.1,-129.81 419.3,-149.04 606.1,-242.44 160.5,-80.26 527.9,-342.97 492.4,-484.88 -38.1,-152.53 -309.5,93.09 -348.5,106.07 -92.7,30.92 -275.2,176.71 -333.3,234.86 -46.7,46.63 -219.2,45.27 -287.9,68.19 -64.2,21.4 -576.2,303.38 -613.7,340.92 -33.2,33.19 -317.1,212.42 -106.1,265.17" /><path
         id="path92"
         style="fill:#d9d9d9;fill-opacity:1;fill-rule:nonzero;stroke:none"
         d="M 3818.38,1697.05 C 2541.65,1697.05 1272.9,1020.91 0,507.141 V 0 h 15148.1 c -1047.8,745.125 -3439,1454.62 -3935.4,1454.62 -885.8,0 -1823.29,-60.62 -2666.81,-60.62 -1616.71,0 -3297.78,303.05 -4727.51,303.05" /><g
         transform="scale(2.30061)"
         id="g94"><path
           id="path96"
           style="fill:#d9d9d9;fill-opacity:1;fill-rule:nonzero;stroke:none"
           d="m 7991.66,-298.057 c 233.12,92.991 425.54,129.427 652,204.9144 188.43,62.811 531.35,158.7773 670.63,298.0556 187.01,187.017 838.81,-27.681 1080.41,93.144 364,181.968 1410.1,-169.557 1862.9,-18.629 879.6,293.208 1668.4,167.657 2589.4,167.657 239.5,0 510,-33.591 745.1,0 259.3,37.044 572.7,234.05 838.3,167.658 196.1,-49.019 368.9,-714.0864 260.8,-894.173 -258.4,-430.69 -924.5,-421.219 -1341.3,-577.485 C 13995.7,-1364.77 12531.8,-1304 11102.6,-1304 c -500.9,0 -1056,-60.78 -1546.14,37.26 -218.84,43.76 -434.19,149.98 -652,186.28 -87.45,14.58 -1262.01,377.309 -1080.46,558.86 110.67,110.672 121.21,37.763 167.66,223.543" /></g><g
         transform="scale(1.0361)"
         id="g98"><path
           id="path100"
           style="fill:#d9d9d9;fill-opacity:1;fill-rule:nonzero;stroke:none"
           d="m 16013.7,6712.59 c 20.5,68.54 71,187.96 117,233.99 47.7,47.71 44.8,147.22 87.7,190.12 81.6,81.56 -59.2,-460.49 -204.7,-424.11" /></g><g
         transform="scale(1.25552)"
         id="g102"><path
           id="path104"
           style="fill:#d9d9d9;fill-opacity:1;fill-rule:nonzero;stroke:none"
           d="m 16300,5328.98 c -112.4,-114.75 -161.2,-299.96 -271.5,-410.33 -66.6,-66.56 -104.7,-142.18 -181.1,-193.09 -42.1,-28.12 -293.3,-279.93 -325.8,-247.41 -18.3,18.28 114.2,165.74 132.7,175 160.9,80.44 145.7,296.55 241.4,392.22 58.7,58.73 161.8,148.67 199.1,223.27 24.8,49.53 151.8,113.72 205.2,60.34" /></g><g
         transform="scale(1.47896)"
         id="g106"><path
           id="path108"
           style="fill:#d9d9d9;fill-opacity:1;fill-rule:nonzero;stroke:none"
           d="m 15567.6,5189.2 c 72,-16.02 126.6,-69.51 210,-97.33 123.8,-41.26 214.7,-117.35 297.2,-199.78 4.5,-4.56 225.2,-158.8 184.4,-158.8 -1,0 -53.2,109.53 -61.5,117.82 -35.3,35.29 -87.9,46.9 -117.8,76.84 -97.1,97.11 -327.5,353.64 -512.3,261.25" /></g><g
         transform="scale(1.90067)"
         id="g110"><path
           id="path112"
           style="fill:#e5e5e5;fill-opacity:1;fill-rule:nonzero;stroke:none"
           d="m 15823.4,4188.38 c 93.8,12.13 138.1,-121.19 177.6,-140.93 72.1,-36.04 142.6,-113.87 188.8,-183.2 32.2,-48.23 46.9,-119.23 70.5,-166.3 6.3,-12.57 39.7,-101.21 25.3,-115.56 -29,-29.06 -93.7,60.32 -104.2,76.1 -77.6,116.36 -162.4,213.64 -287.5,276.22 -37.2,18.56 -57.8,88.81 -87.4,118.38 -26.4,26.42 -40.4,149.61 16.9,135.29" /></g><g
         transform="scale(2.00555)"
         id="g114"><path
           id="path116"
           style="fill:#e7e7e7;fill-opacity:1;fill-rule:nonzero;stroke:none"
           d="m 16165.9,3328.27 c -41.6,-68.64 -44.5,-154.84 -69.5,-229.72 -20.7,-62.13 -74.8,-158.01 -74.8,-213.69 0,-42.39 -91.9,-188.1 -117.5,-213.7 -21.1,-21.11 -47.8,-106.58 -26.7,-85.47 23,23.01 16.8,57.51 42.7,74.79 54.4,36.23 180.7,72.88 208.4,128.21 43.7,87.53 171.5,506.05 37.4,539.58" /></g><path
         id="path118"
         style="fill:#d2d2d2;fill-opacity:1;fill-rule:nonzero;stroke:none"
         d="m 6049.55,11277.1 c 31.49,-154 45.6,-411.2 132.58,-541.7 19.77,-29.6 38.53,-88.2 64.4,-79.6 135.76,45.3 113.45,621.1 170.47,678.1 3.13,3.1 15.15,-98.3 15.15,-109.8 0,-169.2 -15.33,-284.7 -64.4,-431.9 -34.14,-102.4 -3.59,-195.6 -121.22,-234.8 -10.35,-3.5 -44.57,-13.7 -56.82,-7.6 -46.46,23.2 -209.92,682.5 -185.62,731.1 8,16 53.45,28.2 45.46,-3.8" /><path
         id="path120"
         style="fill:#d2d2d2;fill-opacity:1;fill-rule:nonzero;stroke:none"
         d="m 13130.4,10591.1 c 17,-24.9 40.5,-55 48.2,-85.7 26.8,-107.3 33.5,-205.9 155.3,-246.5 39.7,-13.2 167.1,8.8 187.5,-32.1 1.5,-2.9 -61.3,-361.31 -64.3,-364.3 -27.3,-27.39 -375,491.1 -375,578.6 0,43.3 -63.9,206 48.3,150" /><g
         transform="scale(1.55259)"
         id="g122"><path
           id="path124"
           style="fill:#e8e8e8;fill-opacity:1;fill-rule:nonzero;stroke:none"
           d="m 16300,2898.39 c -131.6,-18.26 -279.3,-27.6 -414.1,-27.6 -71.2,0 -144.5,4.67 -213.9,-6.9 -107.6,-17.93 -386.4,-38.05 -386.4,96.61 0,9.88 -6.3,55.82 0,62.11 79.2,79.19 990.2,-75.9 1014.4,-124.22" /></g><path
         id="path126"
         style="fill:#ffffff;fill-opacity:1;fill-rule:nonzero;stroke:none"
         d="m 6787.79,11549 c -53.91,-31.5 -113.34,-30.1 -132.73,3.1 -19.39,33.2 8.6,85.7 62.51,117.2 53.91,31.4 330.47,162.5 349.86,129.3 19.39,-33.2 -225.73,-218.2 -279.64,-249.6" /><g
         transform="scale(1.08219)"
         id="g128"><path
           id="path130"
           style="fill:#fefefe;fill-opacity:1;fill-rule:nonzero;stroke:none"
           d="m 16273.6,10959.1 c 26.4,-51.3 22.2,-106.1 -9.4,-122.3 -31.6,-16.3 -78.6,12.1 -105,63.4 -26.4,51.3 -133.8,313 -102.2,329.2 31.6,16.3 190.2,-219 216.6,-270.3" /></g><g
         transform="scale(1.09149)"
         id="g132"><path
           id="path134"
           style="fill:#fefefe;fill-opacity:1;fill-rule:nonzero;stroke:none"
           d="m 16273.8,11428 c 26.2,-50.9 22,-105.2 -9.3,-121.3 -31.4,-16.1 -78,12.1 -104.1,62.9 -26.2,50.9 -132.7,310.3 -101.3,326.4 31.3,16.1 188.6,-217.1 214.7,-268" /></g><path
         id="path136"
         style="fill:#ffffff;fill-opacity:1;fill-rule:nonzero;stroke:none"
         d="m 6873.5,12491.8 c -53.91,-31.5 -113.33,-30 -132.72,3.2 -19.39,33.2 8.59,85.6 62.51,117.1 53.91,31.5 330.46,162.6 349.85,129.4 19.4,-33.3 -225.72,-218.2 -279.64,-249.7" /><path
         id="path138"
         style="fill:#ffffff;fill-opacity:1;fill-rule:nonzero;stroke:none"
         d="m 4485.08,11273.3 c 0,-75.3 -61.06,-136.4 -136.37,-136.4 -75.32,0 -136.37,61.1 -136.37,136.4 0,75.3 61.05,136.4 136.37,136.4 75.31,0 136.37,-61.1 136.37,-136.4" /><path
         id="path140"
         style="fill:#ffffff;fill-opacity:1;fill-rule:nonzero;stroke:none"
         d="m 3212.29,11349.1 c 0,-75.3 -61.06,-136.4 -136.38,-136.4 -75.31,0 -333.35,106.5 -333.35,181.8 0,75.3 258.04,90.9 333.35,90.9 75.32,0 136.38,-61 136.38,-136.3" /><path
         id="path142"
         style="fill:#ffffff;fill-opacity:1;fill-rule:nonzero;stroke:none"
         d="m 4075.96,12758.2 c 0,-20.1 -7.98,-39.3 -22.18,-53.5 -14.21,-14.3 -33.48,-22.2 -53.58,-22.2 -20.09,0 -39.36,7.9 -53.57,22.2 -14.2,14.2 -22.19,33.4 -22.19,53.5 0,41.9 33.92,75.8 75.76,75.8 20.1,0 39.37,-8 53.58,-22.2 14.2,-14.2 22.18,-33.5 22.18,-53.6" /><path
         id="path144"
         style="fill:#e8e8e8;fill-opacity:1;fill-rule:nonzero;stroke:none"
         d="m 4712.36,11606.7 c 0,-41.9 -33.92,-75.8 -75.76,-75.8 -41.84,0 -75.76,33.9 -75.76,75.8 0,41.8 33.92,75.7 75.76,75.7 41.84,0 75.76,-33.9 75.76,-75.7" /><path
         id="path146"
         style="fill:#ffffff;fill-opacity:1;fill-rule:nonzero;stroke:none"
         d="m 2848.63,11644.5 c 0,-22.1 -7.98,-43.3 -22.19,-58.9 -14.21,-15.6 -33.48,-24.4 -53.57,-24.4 -20.09,0 -39.37,8.8 -53.57,24.4 -14.21,15.6 -22.19,36.8 -22.19,58.9 0,46.1 33.92,83.4 75.76,83.4 20.09,0 39.36,-8.8 53.57,-24.4 14.21,-15.7 22.19,-36.9 22.19,-59" /><g
         transform="scale(1.67433)"
         id="g148"><path
           id="path150"
           style="fill:#fefefe;fill-opacity:1;fill-rule:nonzero;stroke:none"
           d="m 16300,6655.39 c -112.8,39.33 -644.3,450.13 -804.4,290.1 -148.4,-148.39 492.3,-155.29 501.1,-158.24 101.1,-33.68 197.5,-131.86 303.3,-131.86" /></g><g
         transform="scale(2.04988)"
         id="g152"><path
           id="path154"
           style="fill:#fefefe;fill-opacity:1;fill-rule:nonzero;stroke:none"
           d="m 16300,5199.53 c -92.1,32.13 -526.3,367.67 -657,236.96 -121.2,-121.21 402,-126.84 409.3,-129.25 82.5,-27.51 161.3,-107.71 247.7,-107.71" /></g><g
         transform="scale(1.93461)"
         id="g156"><path
           id="path158"
           style="fill:#fefefe;fill-opacity:1;fill-rule:nonzero;stroke:none"
           d="m 16300,5765.81 c -72,25.09 -411.1,287.22 -513.3,185.11 -94.6,-94.69 314.1,-99.09 319.8,-100.97 64.5,-21.5 126,-84.14 193.5,-84.14" /></g><g
         transform="scale(1.84762)"
         id="g160"><path
           id="path162"
           style="fill:#fefefe;fill-opacity:1;fill-rule:nonzero;stroke:none"
           d="m 16300,6070.1 c -58.4,20.36 -333.5,232.99 -416.4,150.16 -76.8,-76.81 254.8,-80.38 259.4,-81.91 52.3,-17.43 102.2,-68.25 157,-68.25" /></g><g
         transform="scale(1.30251)"
         id="g164"><path
           id="path166"
           style="fill:#fefefe;fill-opacity:1;fill-rule:nonzero;stroke:none"
           d="m 16300,7642.96 c 0,-15.96 -6.3,-31.26 -17.6,-42.54 -11.3,-11.28 -26.6,-17.62 -42.6,-17.62 -15.9,0 -31.2,6.34 -42.5,17.62 -11.3,11.28 -17.6,26.58 -17.6,42.54 0,15.96 6.3,31.26 17.6,42.54 11.3,11.29 26.6,17.62 42.5,17.62 16,0 31.3,-6.33 42.6,-17.62 11.3,-11.28 17.6,-26.58 17.6,-42.54" /></g><g
         transform="scale(1.30075)"
         id="g168"><path
           id="path170"
           style="fill:#fefefe;fill-opacity:1;fill-rule:nonzero;stroke:none"
           d="m 16300,8372.52 c 0,-15.98 -6.3,-31.3 -17.6,-42.6 -11.3,-11.3 -26.7,-17.64 -42.6,-17.64 -16,0 -31.3,6.34 -42.6,17.64 -11.3,11.3 -17.7,26.62 -17.7,42.6 0,33.27 27,60.24 60.3,60.24 33.2,0 60.2,-26.97 60.2,-60.24" /></g><g
         transform="scale(1.32514)"
         id="g172"><path
           id="path174"
           style="fill:#fefefe;fill-opacity:1;fill-rule:nonzero;stroke:none"
           d="m 16300,7782.24 c 0,-15.68 -6.2,-30.72 -17.3,-41.81 -11.1,-11.09 -26.2,-17.32 -41.8,-17.32 -15.7,0 -30.8,6.23 -41.8,17.32 -11.1,11.09 -17.4,26.13 -17.4,41.81 0,15.69 6.3,30.73 17.4,41.82 11,11.09 26.1,17.32 41.8,17.32 15.6,0 30.7,-6.23 41.8,-17.32 11.1,-11.09 17.3,-26.13 17.3,-41.82" /></g><g
         transform="scale(1.32383)"
         id="g176"><path
           id="path178"
           style="fill:#fefefe;fill-opacity:1;fill-rule:nonzero;stroke:none"
           d="m 16300,8028.73 c 0,-7.11 -2.8,-13.94 -7.9,-18.97 -5,-5.03 -11.8,-7.85 -18.9,-7.85 -7.1,0 -14,2.82 -19,7.85 -5,5.03 -7.8,11.86 -7.8,18.97 0,14.81 12,26.82 26.8,26.82 14.8,0 26.8,-12.01 26.8,-26.82" /></g><path
         id="path180"
         style="fill:#ffffff;fill-opacity:1;fill-rule:nonzero;stroke:none"
         d="m 12955.2,11464.9 c -79.4,109 -141.2,207.4 -141.2,355.6 0,26 7.6,66.7 0,90.9 -2,6.4 -10.1,19.8 -3.7,19.8 7.6,0 19,-65.4 29.7,-71.1 64.1,-34.1 165.9,-287.6 115.2,-395.2" /><path
         id="path182"
         style="fill:#ffffff;fill-opacity:1;fill-rule:nonzero;stroke:none"
         d="m 12991.3,12610.1 c -51.2,230.9 -81.4,432.1 22.6,670.3 18.2,41.7 59,101.8 63.8,146 1.2,11.6 -2.3,38.8 7.9,34.4 12.3,-5.4 -15.4,-118.5 -2.2,-135.2 79,-99.6 64.7,-578.2 -92.1,-715.5" /><path
         id="path184"
         style="fill:#ffffff;fill-opacity:1;fill-rule:nonzero;stroke:none"
         d="m 12137,12207.4 c -79.5,109 -141.3,207.3 -141.3,355.6 0,25.9 7.6,66.7 0,90.9 -1.9,6.4 -10,19.7 -3.7,19.7 7.7,0 19,-65.4 29.8,-71.1 64,-34 165.8,-287.5 115.2,-395.1" /><g
         transform="scale(1.99531)"
         id="g186"><path
           id="path188"
           style="fill:#ffffff;fill-opacity:1;fill-rule:nonzero;stroke:none"
           d="m 16156.7,4934.78 c 4.6,17.61 78.8,152.96 96.3,135.46 47,-47 -67.8,-128.34 -96.3,-135.46" /></g><g
         transform="scale(2.0706)"
         id="g190"><path
           id="path192"
           style="fill:#ffffff;fill-opacity:1;fill-rule:nonzero;stroke:none"
           d="m 16107.8,5107.21 c 6.1,23.62 105.7,205.16 129.2,181.69 63,-63.04 -91,-172.14 -129.2,-181.69" /></g><g
         transform="scale(2.10645)"
         id="g194"><path
           id="path196"
           style="fill:#ffffff;fill-opacity:1;fill-rule:nonzero;stroke:none"
           d="m 16057.8,5350.91 c 7.8,29.76 133.2,258.45 162.8,228.89 79.4,-79.42 -114.6,-216.86 -162.8,-228.89" /></g><g
         transform="scale(2.02621)"
         id="g198"><path
           id="path200"
           style="fill:#ffffff;fill-opacity:1;fill-rule:nonzero;stroke:none"
           d="m 16158.9,4949.43 c 4.5,17.34 77.6,150.62 94.8,133.4 46.3,-46.29 -66.8,-126.39 -94.8,-133.4" /></g><g
         transform="scale(1.9997)"
         id="g202"><path
           id="path204"
           style="fill:#ffffff;fill-opacity:1;fill-rule:nonzero;stroke:none"
           d="m 16185.6,4755.45 c 3.6,14.06 62.9,122.13 76.9,108.16 37.5,-37.53 -54.2,-102.47 -76.9,-108.16" /></g></g></g></svg>