<svg width="64" height="64" xmlns="http://www.w3.org/2000/svg">

 <g>
  <title>background</title>
  <rect fill="none" id="canvas_background" height="402" width="582" y="-1" x="-1"/>
 </g>
 <g>
  <title>Layer 1</title>
  <path id="svg_3" fill="#00F4CB" d="m50,5l-36,0c-0.553,0 -1,0.447 -1,1l0,16l2,0l34,0l2,0l0,-16c0,-0.553 -0.447,-1 -1,-1z"/>
  <path fill="#ffffff" id="svg_5" d="m62,57l-2.867,0l0.813,-6.505c0.036,-0.288 0.054,-0.578 0.054,-0.869l0,-8.253c0,-0.29 -0.018,-0.581 -0.054,-0.868l-0.698,-5.586c-0.192,-1.537 -0.901,-2.986 -1.996,-4.082l-2.252,-2.251l0,-26.586c0,-0.552 -0.448,-1 -1,-1l-44,0c-0.552,0 -1,0.448 -1,1l0,26.586l-2.251,2.251c-1.095,1.095 -1.804,2.544 -1.996,4.082l-0.698,5.586c-0.037,0.288 -0.055,0.578 -0.055,0.869l0,8.253c0,0.29 0.018,0.581 0.054,0.868l0.813,6.505l-2.867,0c-0.552,0 -1,0.448 -1,1l0,4c0,0.552 0.448,1 1,1l14,0c0.552,0 1,-0.448 1,-1l0,-4c0,-0.552 -0.448,-1 -1,-1l-2,0l0,-3.171c0,-0.267 0.104,-0.519 0.293,-0.708l7.793,-7.793c0.102,-0.102 0.184,-0.216 0.27,-0.328l19.289,0c0.086,0.112 0.168,0.227 0.27,0.328l7.793,7.793c0.188,0.189 0.292,0.441 0.292,0.708l0,3.171l-2,0c-0.552,0 -1,0.448 -1,1l0,4c0,0.552 0.448,1 1,1l14,0c0.552,0 1,-0.448 1,-1l0,-4c0,-0.552 -0.448,-1 -1,-1zm-9,-54l0,18l-42,0l0,-18l42,0zm-42,20l42,0l0,3.586l-1.672,-1.672c-0.589,-0.589 -1.373,-0.914 -2.207,-0.914c-0.9,0 -1.706,0.389 -2.276,1l-29.69,0c-0.57,-0.611 -1.376,-1 -2.276,-1c-0.834,0 -1.618,0.325 -2.207,0.914l-1.672,1.672l0,-3.586zm38.726,21.312l-1.726,-1.726l0,-3.586l4,0l0,0.056c0,0.463 -0.109,0.927 -0.317,1.342l-1.957,3.914zm-5.605,-4.312c-0.821,0 -1.563,0.325 -2.121,0.845l0,-1.845l4,0l0,1.644c-0.54,-0.411 -1.189,-0.644 -1.879,-0.644zm-29.847,4.312l-1.957,-3.914c-0.208,-0.415 -0.317,-0.879 -0.317,-1.342l0,-0.056l4,0l0,3.586l-1.726,1.726zm13.726,-17.312l0,4l-4,0l0,-4l4,0zm6,0l0,4l-4,0l0,-4l4,0zm6,0l0,4l-4,0l0,-4l4,0zm6.012,0c-0.001,0.041 -0.012,0.08 -0.012,0.121c0,0.201 0.021,0.399 0.058,0.592c-0.028,0.093 -0.058,0.185 -0.058,0.287l0,3l-4,0l0,-4l4.012,0zm-22.012,6l4,0l0,4l-4,0l0,-4zm-2,4l-4,0l0,-4l4,0l0,4zm8,-4l4,0l0,4l-4,0l0,-4zm6,0l4,0l0,4l-4,0l0,-4zm6,0l4,0l0,4l-4,0l0,-4zm-20,-2l-4,0l0,-4l4,0l0,4zm-6,0l-0.586,0l0.586,-0.586l0,0.586zm-3.122,2.536l0.536,-0.536l2.586,0l0,4l-4,0l0,-1.343c0,-0.79 0.32,-1.563 0.878,-2.121zm5.122,5.464l4,0l0,1.845c-0.558,-0.52 -1.3,-0.845 -2.121,-0.845c-0.69,0 -1.339,0.233 -1.879,0.644l0,-1.644zm6,0l4,0l0,4l-4,0l0,-4zm6,0l4,0l0,4l-4,0l0,-4zm6,0l4,0l0,4l-4,0l0,-4zm12,-2l0,-4l2.586,0l0.536,0.536c0.558,0.558 0.878,1.331 0.878,2.121l0,1.343l-4,0zm0,-6l0,-0.586l0.586,0.586l-0.586,0zm-33,30l-12,0l0,-2l12,0l0,2zm-2.121,-9.293c-0.567,0.566 -0.879,1.32 -0.879,2.122l0,3.171l-5.117,0l-0.844,-6.753c-0.026,-0.206 -0.039,-0.414 -0.039,-0.621l0,-8.253c0,-0.207 0.013,-0.415 0.039,-0.62l0.698,-5.586c0.137,-1.098 0.644,-2.133 1.426,-2.916l2.543,-2.543c0.001,-0.001 0.002,-0.002 0.003,-0.003l3.378,-3.378c0.211,-0.21 0.492,-0.327 0.792,-0.327c0.618,0 1.121,0.503 1.121,1.121c0,0.3 -0.117,0.581 -0.328,0.793l-3.379,3.379c0,0 0,0 -0.001,0.001l-0.828,0.828c-0.944,0.944 -1.464,2.199 -1.464,3.535l0,3.399c0,0.772 0.183,1.545 0.528,2.236l1.854,3.708l-1.382,0c-0.552,0 -1,0.448 -1,1s0.448,1 1,1l3,0c0.01,0 0.02,-0.006 0.03,-0.006c0.063,-0.002 0.123,-0.023 0.186,-0.037c0.067,-0.015 0.134,-0.025 0.196,-0.053c0.011,-0.005 0.024,-0.004 0.035,-0.009c0.049,-0.024 0.081,-0.066 0.124,-0.097c0.045,-0.032 0.097,-0.052 0.136,-0.091l3,-3c0,0 0,0 0.001,-0.001l1.379,-1.379c0.211,-0.21 0.492,-0.327 0.792,-0.327c0.618,0 1.121,0.503 1.121,1.121c0,0.3 -0.117,0.581 -0.328,0.793l-7.793,7.793zm38.242,0l-7.793,-7.793c-0.211,-0.212 -0.328,-0.493 -0.328,-0.793c0,-0.618 0.503,-1.121 1.121,-1.121c0.3,0 0.581,0.117 0.793,0.328l1.379,1.379c0,0 0,0 0.001,0.001l3,3c0.039,0.039 0.091,0.059 0.136,0.091c0.043,0.031 0.075,0.072 0.124,0.097c0.011,0.006 0.024,0.004 0.035,0.009c0.062,0.028 0.129,0.038 0.196,0.053c0.063,0.014 0.123,0.035 0.186,0.037c0.009,-0.001 0.019,0.005 0.029,0.005l3,0c0.552,0 1,-0.448 1,-1s-0.448,-1 -1,-1l-1.382,0l1.854,-3.708c0.345,-0.691 0.528,-1.464 0.528,-2.236l0,-3.399c0,-1.335 -0.52,-2.591 -1.464,-3.535l-0.828,-0.828c0,0 0,0 -0.001,-0.001l-3.379,-3.379c-0.211,-0.212 -0.328,-0.493 -0.328,-0.793c0,-0.618 0.503,-1.121 1.121,-1.121c0.3,0 0.581,0.117 0.793,0.328l3.378,3.378c0.001,0.001 0.002,0.002 0.003,0.003l2.543,2.543c0.782,0.782 1.289,1.818 1.426,2.916l0.698,5.586c0.025,0.205 0.038,0.413 0.038,0.62l0,8.253c0,0.207 -0.013,0.415 -0.039,0.62l-0.844,6.753l-5.117,0l0,-3.171c0,-0.802 -0.312,-1.556 -0.879,-2.122zm9.879,9.293l-12,0l0,-2l12,0l0,2z"/>
  <path fill="#ffffff" id="svg_6" d="m18,11l18,0c0.552,0 1,-0.448 1,-1s-0.448,-1 -1,-1l-18,0c-0.552,0 -1,0.448 -1,1s0.448,1 1,1z"/>
  <path fill="#ffffff" id="svg_7" d="m18,19l12,0c0.552,0 1,-0.448 1,-1s-0.448,-1 -1,-1l-12,0c-0.552,0 -1,0.448 -1,1s0.448,1 1,1z"/>
  <path fill="#ffffff" id="svg_8" d="m46,17l-12,0c-0.552,0 -1,0.448 -1,1s0.448,1 1,1l12,0c0.552,0 1,-0.448 1,-1s-0.448,-1 -1,-1z"/>
  <path fill="#ffffff" id="svg_9" d="m40,11l6,0c0.552,0 1,-0.448 1,-1s-0.448,-1 -1,-1l-6,0c-0.552,0 -1,0.448 -1,1s0.448,1 1,1z"/>
  <path fill="#ffffff" id="svg_10" d="m18,15l28,0c0.552,0 1,-0.448 1,-1s-0.448,-1 -1,-1l-28,0c-0.552,0 -1,0.448 -1,1s0.448,1 1,1z"/>
 </g>
</svg>