<svg id="Flat" height="512" viewBox="0 0 512 512" width="512" xmlns="http://www.w3.org/2000/svg"><path d="m296 24h128v32h-128z" fill="#a3d4f7"/><path d="m456 152-32-96h-128l-32 96z" fill="#e9eef2"/><path d="m56 120h176v368h-176z" fill="#a3d4f7"/><path d="m56 280c0 57.438 78.8 104 176 104v104h-176z" fill="#e9eef2"/><path d="m232 288c0 57.438-78.8 104-176 104v96h176" fill="#e1e3e6"/><path d="m80 88h48v32h-48z" fill="#2d85cc"/><path d="m379.2 152h-115.2v336h115.2 76.8v-336z" fill="#a3d4f7"/><path d="m456 256v232h-192v-152s39.64-59.81 102.4-50c64 10 89.6-30 89.6-30z" fill="#e1e3e6"/><circle cx="360" cy="104" fill="#2d85cc" r="16"/><path d="m272 184v14.792a60 60 0 0 0 9.12 31.8l.48.767a200.006 200.006 0 0 1 30.4 106v118.641a32 32 0 0 1 -32 32h-64a32 32 0 0 1 -32-32v-118.641a200.006 200.006 0 0 1 30.4-106l.48-.767a60 60 0 0 0 9.12-31.8v-14.792" fill="#e1e3e6"/><path d="m312 337.36v118.64a32 32 0 0 1 -32 32h-64a32 32 0 0 1 -32-32v-118.64a200.061 200.061 0 0 1 17.29-81.36h93.42a200.061 200.061 0 0 1 17.29 81.36z" fill="#e9eef2"/><rect fill="#2d85cc" height="32" rx="16" width="96" x="200" y="152"/><path d="m144 184-5.839 10.38c-3.988 7.09-10.161 13.62-13.949 20.24-2.152 3.761-4.212 7.571-4.212 12.047 0 12.131 10.207 21.9 24 21.308 13.793.589 24-9.177 24-21.308 0-4.476-2.06-8.286-4.212-12.047-3.788-6.62-9.961-13.15-13.949-20.24z" fill="#e1e3e6"/></svg>