<?xml version="1.0" ?><svg viewBox="0 0 64 64" xmlns="http://www.w3.org/2000/svg"><defs><style>.cls-1{fill:#ccc;}.cls-2{fill:#adadad;}.cls-3{fill:#e6e6e6;}.cls-4{fill:#c4eff8;}.cls-5{fill:#d7f5fb;}.cls-6{fill:#bb8b6d;}.cls-7{fill:#f2f2f2;}</style></defs><title/><g data-name="Layer 13" id="Layer_13"><polyline class="cls-1" points="26 8 26 2 6 2 6 8"/><polyline class="cls-2" points="32 14 26 8 6 8 10 14"/><polygon class="cls-3" points="6 8 10 14 10 62 2 62 2 14 6 8"/><rect class="cls-1" height="48" width="22" x="10" y="14"/><rect class="cls-2" height="32" width="22" x="10" y="22"/><rect class="cls-4" height="24" width="14" x="14" y="26"/><rect class="cls-5" height="24" width="11" x="14" y="26"/><polyline class="cls-6" points="40 32 40 22 44 22 44 32"/><path class="cls-1" d="M46,62H60a2,2,0,0,0,2-2h0a2,2,0,0,0-2-2H54a2,2,0,0,1-2-2h0a2,2,0,0,1,2-2h2a2,2,0,0,0,2-2h0a2,2,0,0,0-2-2H46"/><rect class="cls-4" height="30" width="18" x="28" y="32"/><rect class="cls-5" height="30" width="15" x="28" y="32"/><rect class="cls-3" height="20" width="18" x="28" y="38"/><rect class="cls-7" height="20" width="15" x="28" y="38"/></g></svg>