<?xml version="1.0" ?><svg style="enable-background:new 0 0 64 64;" version="1.1" viewBox="0 0 64 64" xml:space="preserve" xmlns="http://www.w3.org/2000/svg" xmlns:xlink="http://www.w3.org/1999/xlink"><style type="text/css">
	.st0{fill:#ffffffe6;}
</style><g id="GUIDES_64"/><g id="Layer_3"/><g id="Layer_2"><path class="st0" d="M13,54.7c6,0.8,12.3,1.2,19,1.2s13-0.4,19-1.2c5.2-0.7,9-5.1,9-10.3V19.5c0-5.2-3.9-9.6-9-10.3   C45,8.4,38.6,8,32,8S19,8.4,13,9.3C7.9,10,4,14.3,4,19.5v24.9C4,49.7,7.9,54,13,54.7z M25.6,27.4c0-2.7,3-4.3,5.3-2.9l7.8,5   c1.8,1.1,1.8,3.7,0,4.9l-7.8,5c-2.3,1.5-5.3-0.2-5.3-2.9V27.4z"/></g></svg>